<?xml version="1.0" encoding="utf-8"?>
<!-- Generator: Adobe Illustrator 25.0.0, SVG Export Plug-In . SVG Version: 6.00 Build 0)  -->
<svg version="1.1" id="Layer_1" xmlns="http://www.w3.org/2000/svg" xmlns:xlink="http://www.w3.org/1999/xlink" x="0px" y="0px"
	 viewBox="0 0 1000 1000" style="enable-background:new 0 0 1000 1000;" xml:space="preserve">
<g>
	<path d="M431.18,668.1c16.05,12.58,19.22,29.38,26.75,43.87c18.2,35.05,12.01,71.56,7.08,107.42
		c-4.76,34.59-30.35,55.11-58.47,72.15c-8,4.85-16.79,8.4-25.05,12.85c-26.42,14.21-53.23,11.52-79.87,1.33
		c-32.52-12.43-57.89-34.61-76.86-63c-11.71-17.53-17.48-38.68-17.02-59.91c0.51-23.45,2.61-47.09,6.67-70.18
		c3.27-18.57,14.84-33.53,30.12-45.01c6.47-4.85,13.04-9.66,19.96-13.82c29.88-17.95,60.06-34.95,97.18-29.88
		c2.49,0.34,6.93-2.65,8.1-5.18c17.38-37.64,36.69-74.1,63.05-105.72c-11.27-21.11-22.41-41.5-33.05-62.15
		c-3.68-7.14-6.14-14.91-9.14-22.4c-7.81-19.47-15.97-38.81-23.3-58.46c-5.41-14.5-10.31-29.24-14.42-44.15
		c-6.87-24.91-13.62-49.89-19.06-75.13c-2.9-13.47-3.9-27.53-4.03-41.35c-0.18-19.38,1.06-38.79,2.06-58.17
		c0.53-10.17,8.4-19.87,18.09-20.88c3.81-0.4,9.63,2.57,11.9,5.83c45.79,65.5,92.22,130.6,123.27,205.03
		c9.3,22.3,21.28,43.48,33.1,67.33c16.39-25.79,32.41-49.88,47.22-74.69c9.92-16.63,17.87-34.42,27.15-51.44
		c9.26-17,18.94-33.78,28.71-50.49c7.83-13.39,16.08-26.53,24.17-39.77c8.92-14.61,17.9-29.18,26.79-43.81
		c3.25-5.34,7.85-10.61,13.86-7.02c3.96,2.38,7.33,8.91,7.59,13.77c2.46,45.25-3.7,89.81-13.75,133.74
		c-9.94,43.45-20.25,86.9-32.83,129.63c-10.13,34.42-27.16,66.21-45.85,96.93c-3.69,6.07-7.78,11.95-10.78,18.34
		c-1.02,2.18-0.2,6.3,1.33,8.42c9.82,13.63,20.2,26.86,30.15,40.4c11.83,16.1,23.29,32.47,35.22,48.49c1.5,2.01,4.88,3.56,7.46,3.68
		c23.55,1.1,47.51-0.52,70.6,3.21c41.27,6.67,69.34,32.08,87.7,69.22c11.17,22.59,21.31,45.34,18.27,71.2
		c-2.68,22.86-6.05,44.66-19.62,65.61c-13.74,21.21-29.8,37.9-50.78,50.55c-33.34,20.12-68.53,18.92-103.89,6.57
		c-13.04-4.55-26.06-10.23-37.69-17.6c-36.31-23-56.67-57.39-63.6-98.92c-4.88-29.22,0.27-57.99,13.59-84.87
		c5.17-10.43,10.75-20.66,15.74-31.17c1.15-2.42,1.84-6.32,0.67-8.35c-4.99-8.67-10.32-17.23-16.33-25.22
		c-15.98-21.26-39.18-28.4-63.99-34.52c-15.45-3.82-22.54,3.47-31.03,12.41C467.04,631.04,449.52,649.06,431.18,668.1z
		 M354.47,163.19c-1.01,2.24-1.42,2.79-1.51,3.39c-9.85,66.85,9.47,129.53,32.64,190.07c14.21,37.11,24.85,76.3,46.96,110.36
		c16.34,25.17,31.36,51.22,48.01,76.18c7.64,11.45,17.53,21.48,27.01,31.59c2.83,3.02,7.5,4.89,11.67,6
		c9.32,2.5,19.63,2.56,28.12,6.59c13.85,6.58,28.65,13.45,39.25,24.01c13.32,13.27,22.81,30.38,33.96,45.83
		c3.33,4.61,3.8,8.13-0.3,13.57c-15.72,20.85-28.38,44.1-32.55,69.69c-8.21,50.34,7.53,93.22,50.21,122.74
		c15.28,10.57,34.07,17.42,52.25,22.12c28.38,7.33,55.77,3.08,80.08-15.4c13.6-10.34,23.18-23.29,32.98-37.2
		c12.66-17.96,14.59-37.31,16.81-57.33c2.41-21.72-7.08-40.25-16.2-58.92c-15.62-31.99-39.66-54.27-75.66-58.23
		c-23.53-2.59-47.66-0.32-71.48,0.7c-6.21,0.27-9.12-0.96-12.19-6.27c-8.41-14.51-15.63-30.42-26.92-42.4
		c-31.74-33.69-55.11-72.84-76.32-113.15c-34.32-65.23-66.98-131.35-99.52-197.51C417.93,251.15,385.54,208.38,354.47,163.19z
		 M444.56,530.71c-10.45,16.29-21.65,31.78-30.73,48.41c-10.19,18.67-18.53,38.36-27.58,57.65c-5.23,11.14-9.99,13.31-19.27,11.13
		c-20.31-4.78-40.32-4.57-59.14,6.26c-6.44,3.7-13.28,6.71-19.66,10.49c-19.46,11.5-41.18,21.32-49.68,44.16
		c-5.22,14.01-7.46,29.33-9.44,44.27c-1.44,10.81-1.91,22.28,0.14,32.88c2.97,15.38,5.68,32.08,13.73,44.95
		c15.61,24.96,37.84,44.09,66.02,54.93c21.62,8.32,43.22,11.18,64.63-1.06c7.3-4.17,15.23-7.27,22.4-11.64
		c22.56-13.73,44.05-29.57,48.33-57.52c5.64-36.82,8.4-73.9-10.98-108.67c-5.06-9.09-9.04-18.17-18.39-24.22
		c-7.79-5.05-8.93-13.61-3.11-21.34c9.13-12.11,18.87-23.82,29.03-35.09c14-15.52,28.64-30.48,42.43-45.07
		C471.38,565.71,458.51,548.92,444.56,530.71z M527.36,428.3c15.09,27.13,31.37,56.39,48.37,86.95
		c21.81-30.65,36.99-62.62,48.8-95.57c21.54-60.1,33.76-122.74,43.75-185.71c2.28-14.35,3.39-28.88,5.04-43.32
		c-3.14,0.87-4.09,2.09-4.82,3.44c-23.62,43.39-53.94,83.03-72.45,129.29c-2.02,5.06-5.17,9.71-8.1,14.36
		c-15.21,24.07-30.4,48.15-45.88,72.04C538.3,415.56,533.46,420.68,527.36,428.3z"/>
	<path d="M766.94,768.66c-2.41,11.29-3.67,22.97-7.45,33.78c-8.39,24-29.36,37.22-54.85,38.92c-68.85,4.58-97.05-67.59-74.57-114.99
		c7.58-15.97,22.4-24.95,37.83-31.54c9.51-4.06,20.54-5.88,30.97-6.24C736.77,687.28,768.03,731.18,766.94,768.66z M745.07,768.9
		c0.94-17.98-6.09-33.29-17.59-45.29c-18.99-19.83-35.53-16.97-56.53-6.83c-8.77,4.23-18.14,12.05-22.07,20.6
		c-15.12,32.9,2.97,87.35,55.89,82.48c17.27-1.59,29.74-9.24,35.17-25.49C742.67,786.21,743.42,777.41,745.07,768.9z"/>
	<path d="M255.08,779.86c-0.06-39.7,17.96-69.67,51.44-81.22c10.85-3.74,26.19-3.9,36.24,0.96c57.49,27.78,75.99,103.1,19.21,146.61
		c-6.91,5.29-17.04,8.4-25.85,8.8c-18.41,0.85-36.88-0.37-52.9-12.01C261,826.87,254.48,804.22,255.08,779.86z M275.99,778.44
		c0.59,6.43,0.75,12.94,1.85,19.28c4.9,28.26,43.75,48.32,67.92,33.98c21.57-12.81,35.29-40.54,26.5-68.74
		c-7.38-23.67-24.45-36.45-43.77-48.06c-1.98-1.19-5.62-0.78-8.04,0.11C290.29,726.1,276.41,746.24,275.99,778.44z"/>
</g>
</svg>
