<?xml version="1.0" encoding="utf-8"?>
<!-- Generator: Adobe Illustrator 25.0.0, SVG Export Plug-In . SVG Version: 6.00 Build 0)  -->
<svg version="1.1" id="Layer_1" xmlns="http://www.w3.org/2000/svg" xmlns:xlink="http://www.w3.org/1999/xlink" x="0px" y="0px"
	 viewBox="0 0 1000 1000" style="enable-background:new 0 0 1000 1000;" xml:space="preserve">
<g>
	<path d="M318.16,447.06c-2.85,32.35-2.85,32.35-36.61,35.7c0.53,11.78,1.89,23.55,1.28,35.22c-0.38,7.36-2.59,15.15-5.97,21.72
		c-4.93,9.56-15.95,8.94-19.81-1.1c-3.86-10.04-6.29-20.7-8.58-31.26c-2.03-9.35-3.01-18.92-4.43-28.25
		c-1.47-0.51-2.36-0.99-3.31-1.13c-22.11-3.29-25.13-5.74-24.47-27.84c0.35-11.65-3.33-16.73-14.6-18.25
		c-10.19-1.37-16.27-8.28-19.5-17.82c-6.51-19.2-12.07-38.34-12.14-59.12c-0.09-25.14-2.54-50.27-3.93-75.4
		c-0.15-2.65-0.3-5.36,0.11-7.96c4.65-29.4,11.72-37.25,38.52-38.36c13.84-0.57,27.73-0.1,41.17-0.1c0-9.83-0.21-17.04,0.05-24.23
		c0.38-10.6,4.73-15.02,15.17-15.93c3.64-0.32,7.3-0.67,10.95-0.72c7.29-0.09,12.11,3.38,13.56,10.61
		c1.11,5.52,1.56,11.18,2.52,16.74c2.31,13.38,5.11,16.33,18.91,15.66c19.89-0.96,39.72-3.1,59.59-4.6
		c15.56-1.17,31.12-2.5,46.7-3.13c37.48-1.52,74.97-3.32,112.47-3.75c27.23-0.31,55-1.63,81.61,2.89
		c41.52,7.05,82.87,4.04,124.32,4.21c13.61,0.06,27.24-1.05,40.83-2.05c9.88-0.73,19.8-1.65,29.54-3.38
		c13.93-2.48,26.73,0.12,37.84,8.32c3.8,2.81,6.68,8.42,7.62,13.22c2.56,13,3.39,26.33,5.89,39.35c0.89,4.66,3.94,9.38,7.2,12.99
		c3.49,3.87,8.55,6.26,12.63,9.66c12.87,10.72,20.57,24.03,20.82,41.25c0.2,13.26,2.43,26.65,1.15,39.73
		c-2.8,28.48-11.77,54.45-36.45,72.35c-1.9,1.38-3.04,5.03-3.02,7.62c0.36,37.84,1.14,75.67,1.48,113.51
		c0.26,29.2,0.83,58.44-0.25,87.61c-0.94,25.54-10.62,36.99-35.17,44.47c-7.28,2.22-10.69,5.19-11.43,13.17
		c-0.55,5.96-3.91,11.9-6.92,17.36c-7.04,12.78-14.75,25.2-21.96,37.89c-7.79,13.72-21.08,18.07-35.2,19.39
		c-18.51,1.73-37.17,2.34-55.77,2.58c-40.24,0.52-80.48,0.82-120.72,0.61c-36.58-0.19-73.15-1.74-109.72-1.61
		c-20.54,0.08-41.14,1.71-61.6,3.77c-67.33,6.79-134.84,5.6-202.34,5.27c-0.33,0-0.66-0.06-0.99-0.08
		c-30.41-2.53-30.89-2.98-38.68-32.02c-2.84-10.57-5.69-21.15-9.07-31.55c-2.84-8.73-6.29-16.03-16.57-20.36
		c-6.03-2.54-11.19-12.59-12.46-20c-5.97-34.9-13.95-69.54-12.46-105.49c1.04-25.1,10.27-38.06,40.58-41.81
		c11.17-1.38,22.66-1.85,33.87-1.01c24.44,1.83,48.91,3.95,73.15,7.45c37.84,5.47,75.57,12.08,113.96,10.78
		c40.78-1.38,81.61-2.81,122.28-6c32.71-2.56,65.22-7.69,97.8-11.86c13.83-1.77,19.4-6.52,19.5-19.16
		c0.42-51.03,3.9-102.13-2.08-153.08c-1.34-11.41-4.41-14.77-15.95-14.61c-63.83,0.85-127.65,2.07-191.47,3.07
		c-6.33,0.1-10.15,2.6-13.09,8.5c-10.79,21.71-24.86,40.8-47.03,52.34C331.36,442.26,324.71,444.39,318.16,447.06z M571.78,723.03
		c28.69-2.59,66.38-5.6,103.98-9.49c40.94-4.23,82.07-7.7,122.62-14.45c35.35-5.88,36.99-9.98,37.42-42.11
		c0.08-5.64,0.08-11.29,0.02-16.93c-0.73-63.74-1.4-127.48-2.27-191.21c-0.18-13.27-0.98-26.53-1.73-39.78
		c-0.86-15.23-2.64-30.44-2.84-45.68c-0.45-33.1,0.17-66.21-0.32-99.31c-0.24-16.22-6.94-18.76-23.27-16.89
		c-11.5,1.32-23.02,2.54-34.56,3.42c-10.27,0.79-20.58,1.4-30.88,1.48c-36.91,0.26-74.35,4.15-110.6-0.68
		c-39.89-5.32-79.59-5.43-119.32-5.62c-44.43-0.21-88.88,3.37-133.32,5.4c-14.91,0.68-29.81,1.58-44.7,2.53
		c-14.41,0.92-28.8,2.91-43.2,2.89c-27.51-0.04-55.01-1.47-82.52-1.72c-13.43-0.13-16.23,2.88-18.11,16.04
		c-0.47,3.27-0.51,6.64-0.33,9.94c1.47,27.13,2.23,54.34,4.92,81.36c1.46,14.66,5.92,29.08,9.81,43.39c0.72,2.65,4.89,5.23,8,6.25
		c31.64,10.35,64.29,14.17,97.4,12.69c7.75-0.35,15.57-4.45,22.91-7.81c18.54-8.51,26.63-26.2,35.59-42.71
		c5.39-9.93,12.3-16.15,23.82-16.89c19.91-1.27,39.79-3.63,59.71-3.89c44.24-0.57,88.5-0.16,132.75-0.02
		c5.96,0.02,11.99,0.38,17.87,1.34c12.93,2.13,24.03,14.1,25.62,27.01c6.7,54.26,3.78,108.72,2.62,163.09
		c-0.51,23.89-13.44,35.99-37.15,38.96c-33.24,4.17-66.41,9.42-99.78,11.93c-42.33,3.18-84.84,4.08-127.27,5.93
		c-36.46,1.59-72.37-3.82-107.99-10.2c-35.53-6.37-70.97-9.74-107.02-7.02c-16.88,1.27-22.66,5.65-21.35,22.64
		c2.2,28.67,5.54,57.29,9.27,85.81c2.73,20.87-0.67,20.81,23.37,22.68c24.71,1.92,49.69,0.16,74.54,0.5
		c63.5,0.87,127.01,1.81,190.5,3.11C471.5,719.94,517.03,721.49,571.78,723.03z M791.28,723.02c-5.72,0.51-8.31,0.67-10.89,0.99
		c-46.05,5.83-91.97,13.27-138.19,17.03c-39.02,3.18-78.41,3.37-117.6,2.6c-52.48-1.02-104.89-5.64-157.36-6.17
		c-66.36-0.67-132.75,1.21-199.68,1.99c3.76,13.95,7.88,26.91,10.6,40.15c1.72,8.36,5.73,11.89,13.98,11.92
		c27.59,0.1,55.2,1.09,82.76,0.4c39.83-0.99,79.64-3.18,119.45-4.82c29.5-1.22,58.99-3.02,88.5-3.39
		c29.57-0.37,59.15,1.04,88.73,1.06c28.91,0.02,57.82-0.72,86.73-1.16c25.92-0.4,51.83-0.87,77.75-1.3
		c14.08-0.23,26.32-3.23,31.79-18.58c1.63-4.57,5.33-8.37,7.8-12.69C780.54,742.55,785.23,733.91,791.28,723.02z M854.47,322.54
		c0,37.82,0,74.19,0,110.57c1.67,0.29,3.34,0.57,5.01,0.86c4.32-11.95,11.02-23.64,12.4-35.92c1.98-17.61,0.84-35.7-0.44-53.48
		C870.74,334.96,863.83,328.03,854.47,322.54z M294.92,460.76c0.8-1.02,1.6-2.04,2.41-3.07c-2.23-3.67-4.08-10.21-6.75-10.56
		c-17.28-2.28-34.74-3.22-52.13-4.6c-1.8,13.03-1.75,12.98,10.4,14.2c6.26,0.63,12.46,1.93,18.72,2.45
		C276.67,459.94,285.8,460.26,294.92,460.76z"/>
	<path d="M660.68,583.51c-3.14-32.58,20.1-52.38,48.41-68.78c1.7-0.99,3.76-2.27,5.53-2.11c15.98,1.46,32.66,0.87,47.68,5.54
		c14.27,4.44,23.24,17.09,30.38,31.17c15.68,30.95,9.69,60.78-2.38,90.28c-8.2,20.04-27.15,25.28-46.4,27.75
		C699.04,673.11,658.81,634.54,660.68,583.51z M732.15,646.18c29.18-0.1,37.49-6.54,44.5-34.71c1.36-5.46,2.41-11.02,3.33-16.57
		c2.87-17.24-4-32.21-12.76-45.92c-5.58-8.73-14.5-14.4-26.25-13.27c-4.18,0.4-8.54-1.39-12.78-1.21
		c-4.74,0.2-10.04,0.37-14.05,2.51c-24.74,13.14-35.23,33.79-31.79,61.71C684.6,617.05,708.74,650.33,732.15,646.18z"/>
	<path d="M790.38,332.32c-0.09,20.05-13.74,40.14-31,45.61c-16.76,5.32-37.47-3.07-49.14-18.32c-15.49-20.25-5.19-65.6,26.2-70.19
		c0.33-0.05,0.7-0.01,0.98-0.16c10.47-5.6,20.81-8.82,31.22,0.34C781.6,301,791,314.09,790.38,332.32z M755.09,307.39
		c-3.48,1.68-6.81,4.28-10.47,4.88c-14.07,2.31-20.82,10.05-19.96,24.34c0.58,9.61,6.14,16.21,14.75,19.35
		c8.71,3.17,16.71,1.59,23.08-6.35C773.23,336.2,770.6,320.06,755.09,307.39z"/>
</g>
</svg>
