<?xml version="1.0" encoding="utf-8"?>
<!-- Generator: Adobe Illustrator 25.0.0, SVG Export Plug-In . SVG Version: 6.00 Build 0)  -->
<svg version="1.1" id="Layer_1" xmlns="http://www.w3.org/2000/svg" xmlns:xlink="http://www.w3.org/1999/xlink" x="0px" y="0px"
	 viewBox="0 0 1000 1000" style="enable-background:new 0 0 1000 1000;" xml:space="preserve">
<g>
	<path d="M137.05,293.88c14.67-4.29,28.09-10.3,42.01-11.84c27.22-3.03,48.34,11.47,67.27,28.86
		c17.21,15.81,33.56,32.55,50.47,48.69c21.46,20.47,52.22,25.29,77.71,10.34c33.09-19.41,64.74-41.31,98.14-60.15
		c17.61-9.94,37.45-16.1,56.64-22.97c5.42-1.94,12.71-2.01,18.13-0.09c28.32,10.02,58.87,16.33,80.46,39.46
		c27.42,29.37,61.75,30.87,95.75,20.27c39.41-12.28,76.94-30.36,111.14-54.24c5.6-3.91,11.37-7.74,16.25-12.45
		c3.05-2.94,5.93-7.25,6.54-11.3c3.21-21.22,5.5-42.58,8.46-63.84c1.13-8.14,5.01-14.55,14.58-14.13c7.64,0.34,11.67,6.97,10.18,17
		c-7.21,48.63-15.9,97.08-21.48,145.89c-4.56,39.92-4.12,80.4-8.29,120.39c-6.49,62.14-14.67,124.11-22.84,186.07
		c-3.84,29.14-16.46,55.21-34.45,78.07c-6.77,8.61-17.02,15.83-27.19,20.23c-55.86,24.2-114.67,24.73-174.01,19.52
		c-7.52-0.66-15.1-0.86-22.65-0.91c-69.15-0.52-138.32-0.23-207.45-1.73c-36.25-0.79-72.46-4.36-108.63-7.4
		c-8.78-0.74-17.82-3.22-25.88-6.82c-14.41-6.44-28.36-14-42.14-21.73c-11.12-6.24-16.52-17.2-18.98-28.98
		c-5.87-28.07-11.24-56.27-16.07-84.54c-9.55-55.94-18.62-111.95-27.85-167.94c-9.65-58.52-18.16-117.12-21.46-176.48
		c-1.39-24.96-7.66-49.64-11.6-74.46c-0.84-5.3-2.81-11.2-1.31-15.88c1.57-4.91,5.96-11.01,10.44-12.43
		c6.91-2.19,11.02,3.77,12.11,10.53c4.87,30.13,9.62,60.28,14.32,90.43C136.21,284.58,136.61,289.94,137.05,293.88z M852.77,309.19
		c-19.21,11.43-35.68,22.46-53.25,31.33c-17.94,9.05-37.09,15.68-55.48,23.88c-46.78,20.85-95.99,13.07-132.77-21.88
		c-19.35-18.39-44.84-23.55-68.43-32.8c-3.08-1.21-7.45-0.91-10.64,0.26c-14.82,5.41-30.46,9.63-43.93,17.47
		c-32.83,19.12-64.47,40.29-96.89,60.13c-37.87,23.17-79.86,18.48-112-12.1c-16.67-15.86-33.12-31.97-49.58-48.06
		c-26.89-26.27-54.59-29.23-81.26-9.13c-7.37,5.56-10.97,11.76-9.47,21.06c1.54,9.57,2.11,19.3,3.7,28.86
		c9.18,55.3,18.61,110.56,27.8,165.85c8.42,50.6,17.04,101.18,24.76,151.89c2.95,19.34,9.86,33.14,29.17,42.33
		c19.54,9.29,38.05,18.12,60.34,16.27c8.89-0.74,17.96,0.53,26.93,1.19c31.54,2.31,63.04,6.21,94.6,6.82
		c58.33,1.11,116.7,0.2,175.05,0.43c10.4,0.04,20.81,2.34,31.18,2.12c35.53-0.76,71.16-0.93,106.53-3.93
		c15.39-1.3,30.59-8.05,45.19-14c8.25-3.36,17.04-8.68,22.25-15.62c16.64-22.17,26.76-47.38,30.03-75.21
		c5.61-47.78,12.01-95.47,17.29-143.28c3.27-29.63,4.87-59.44,7.66-89.12c2.71-28.89,5.98-57.73,9.03-86.59
		C851.16,322.02,851.86,316.73,852.77,309.19z"/>
</g>
</svg>
