<?xml version="1.0" encoding="utf-8"?>
<!-- Generator: Adobe Illustrator 25.0.0, SVG Export Plug-In . SVG Version: 6.00 Build 0)  -->
<svg version="1.1" id="Layer_1" xmlns="http://www.w3.org/2000/svg" xmlns:xlink="http://www.w3.org/1999/xlink" x="0px" y="0px"
	 viewBox="0 0 1000 1000" style="enable-background:new 0 0 1000 1000;" xml:space="preserve">
<g>
	<path d="M292.5,715.79c33.63-42.48,65.69-82.97,98.7-124.66c-22.61-24-42.33-49.16-69.59-66.53c-7.15-4.55-13.24-9.1-8.66-17.98
		c4.4-8.52,12.85-8.6,19.78-4.17c10.19,6.51,19.73,14.17,28.94,22.06c16.15,13.85,31.83,28.24,46.56,41.39
		c23.78-26.55,50.11-55.95,76.82-85.77c-7.81-7.46-17.62-14.54-24.44-23.82c-14.78-20.12-28.36-41.17-41.68-62.31
		c-3.29-5.22-5.59-12.48-4.86-18.38c0.64-5.2,5.15-12.18,9.74-14.1c6.98-2.93,11.84,2.83,13.85,9.88
		c10.45,36.7,33.67,64.3,62.57,87.84c0.87,0.71,1.93,1.17,3.21,1.93c33.78-31.49,67.57-62.98,102.36-95.41
		c-10.33-12.43-20.5-24.67-30.68-36.91c-13.4-16.1-27.14-31.92-39.96-48.47c-3.08-3.98-5.09-10.76-4.09-15.51
		c2.06-9.8,14.72-10.03,22.62-0.65c20.85,24.76,41.54,49.66,62.29,74.5c1.93,2.31,3.9,4.6,7.17,8.44
		c21.09-25.07,41.73-49.61,63.09-75c-4.19-4.01-7.32-7.14-10.59-10.11c-23.39-21.27-47.17-42.13-70.01-63.97
		c-7.52-7.2-13.77-16.37-18.27-25.76c-1.76-3.67,1.43-12.84,5.06-15.04c3.28-1.98,11.85,0.48,15.3,3.85
		c15.18,14.8,28.83,31.17,44.03,45.94c15.81,15.36,32.77,29.54,49.8,44.73c26.85-28.75,50.26-58.86,64.46-95.31
		c1.34-3.45,2.89-7.18,5.42-9.71c5.18-5.18,11.66-7.89,18.52-3.2c6.89,4.71,7.03,11.65,3.42,18.29
		c-16.93,31.08-33.17,62.62-57.46,88.97c-4.88,5.3-9.37,10.97-16.1,18.9c14.64,8.76,28.37,17.07,42.22,25.16
		c2.92,1.71,6.42,2.41,9.49,3.91c7.41,3.61,11.59,9.44,8.22,17.56c-3.32,7.98-10.79,8.73-17.4,5.25
		c-17.08-9-33.73-18.82-50.51-28.39c-2.23-1.27-4.22-2.99-6.66-4.75c-22.34,26.54-44.32,52.67-67.08,79.71
		c23.04,28.5,39.94,61.44,69.96,83.96c3.38,2.53,5.79,10.89,4.11,14.36c-1.76,3.65-9.63,7.27-13.65,6.25
		c-6.56-1.66-13.5-5.96-17.93-11.15c-17.03-19.95-33.16-40.68-49.55-61.18c-3.27-4.09-6.23-8.44-10.43-14.18
		c-32.35,30.01-63.79,59.17-96.72,89.72c5.2,3.77,8.72,6.27,12.18,8.85c12.5,9.34,25.34,18.26,37.35,28.2
		c8.59,7.11,9.65,16.48,3.49,21.78c-7.59,6.54-13.5,2.04-20-3.1c-15.78-12.48-32.12-24.26-50.4-37.94
		c-28.56,31.94-56.32,62.98-84.93,94.98c20.37,20.65,33.88,44.41,59.84,55.25c6.76,2.82,11.34,9.05,7.11,15.35
		c-2.79,4.15-11.75,8.4-15.52,6.83c-10.99-4.59-21.84-10.87-30.75-18.75c-12.45-11.02-23.09-24.09-34.7-36.49
		c-30.42,38.3-60.55,76.23-91.53,115.23c9.06,4.16,16.88,7.87,24.8,11.35c22.97,10.09,46.14,19.74,68.8,30.47
		c3.65,1.73,7.78,8.92,6.84,12.21c-1.22,4.29-7.14,9.9-11.27,10.09c-6.76,0.32-14.06-2.46-20.51-5.34
		c-27.42-12.26-54.62-25.03-83.69-38.45c-8.03,12.88-15.98,25.22-23.51,37.82c-9.56,15.99-18.89,32.13-28.07,48.34
		c-2.39,4.23-2.98,9.7-5.97,13.3c-3.45,4.15-9.11,9.93-12.93,9.34c-4.13-0.64-10.36-7.98-10.15-12.11
		c0.4-7.85,3.63-16.13,7.63-23.13c16.18-28.33,33.09-56.24,49.51-83.94c-21.3-16.07-42.21-31.83-63.08-47.64
		c-2.42-1.83-5.82-3.56-6.64-6.04c-1.41-4.28-3.15-10.62-1.1-13.34c2.52-3.35,9.04-5.72,13.37-5.13c4.78,0.65,9.22,4.88,13.47,8.01
		C253.03,686.32,272.43,700.84,292.5,715.79z"/>
</g>
</svg>
