<?xml version="1.0" encoding="utf-8"?>
<!-- Generator: Adobe Illustrator 25.0.0, SVG Export Plug-In . SVG Version: 6.00 Build 0)  -->
<svg version="1.1" id="Layer_1" xmlns="http://www.w3.org/2000/svg" xmlns:xlink="http://www.w3.org/1999/xlink" x="0px" y="0px"
	 viewBox="0 0 1000 1000" style="enable-background:new 0 0 1000 1000;" xml:space="preserve">
<g>
	<path d="M827.92,302.85c2.51,54.32,4.98,108.63,7.56,162.95c0.42,8.83,1.43,17.63,1.93,26.46c3.08,54.31,5.86,108.63,9.31,162.92
		c0.66,10.42-1.5,15.32-12.08,20.36c-39.13,18.62-77.25,39.4-115.8,59.25c-18.68,9.62-37.56,18.86-56.17,28.6
		c-4.76,2.49-8.83,6.27-13.28,9.36c-14.41,10.02-28.51,20.55-43.35,29.89c-28.62,18.02-57.72,35.26-86.49,53.05
		c-6.04,3.73-11.38,3.53-16.96-0.42c-22.95-16.24-45.83-32.59-68.91-48.64c-22.82-15.87-45.43-32.13-68.93-46.94
		c-23.51-14.83-47.89-28.27-72.09-41.98c-25.08-14.21-50.38-28.02-75.6-41.98c-8.08-4.47-9.22-12.09-9.06-20.19
		c0.53-27.87,2.37-55.77,1.51-83.59c-3.27-106.36-5.1-212.82-16.33-318.78c-1.36-12.79-2.25-25.7-2.24-38.55
		c0.01-11.26,5.34-14.78,16.25-13.9c44.5,3.56,88.77,2.02,132.73-6.41c9.97-1.91,20.13-3.5,30.26-3.87
		c46.11-1.69,92.31-5.1,138.36-3.71c58.94,1.78,117.76,7.65,176.64,11.56c16.92,1.13,33.89,1.61,50.84,2.38
		c23.98,1.09,47.96,2.25,71.94,3.22c16.55,0.67,21.8,5.71,21.91,22.44c0.16,25.48,0.04,50.97,0.04,76.45
		C829.25,302.78,828.58,302.82,827.92,302.85z M212.67,224.55c0.21,4.59,0.09,7.64,0.52,10.6c13.64,93.13,11.83,187.28,17.84,280.91
		c2.74,42.64-0.03,85.66-0.85,128.49c-0.18,9.22,1.52,15.49,11.03,18.75c5.69,1.95,10.8,5.64,16.11,8.66
		c32.13,18.27,64.54,36.07,96.25,55.04c24.42,14.6,48.15,30.39,71.84,46.17c27.39,18.25,54.36,37.14,81.66,55.53
		c2.16,1.45,6.18,2.52,8.14,1.49c19.8-10.42,40.05-20.23,58.81-32.33c24.98-16.1,48.75-34.08,73.06-51.23
		c1.66-1.17,3.45-2.19,5.26-3.11c18.73-9.52,37.48-19.02,56.24-28.49c36.89-18.61,73.85-37.09,110.59-56.01
		c2.62-1.35,5.33-5.86,5.18-8.75c-2.89-54.65-6.2-109.27-9.46-163.9c-0.3-5.09-0.91-10.16-1.26-15.25
		c-4.13-60.38-8.74-120.71-5.23-181.34c1.21-20.9,0.19-41.92,0.19-61.95c-20.95-1.42-39.4-2.55-57.84-3.96
		c-34.82-2.66-69.64-5.37-104.45-8.24c-72.09-5.95-144.26-9.54-216.59-6.14c-26.43,1.24-52.85,3.07-79.21,5.35
		c-33.04,2.85-65.99,6.77-99.04,9.55C239.07,225.42,226.5,224.55,212.67,224.55z"/>
	<path d="M784.41,506.86c-1,7.17-3.13,13.23-11.25,13.84c-8.02,0.6-11.74-4.72-12.51-11.9c-3.88-36.16-7.58-72.34-11.24-108.52
		c-0.31-3.02-1.03-6.91,0.43-8.99c2.8-3.98,7.03-9.58,10.68-9.6c3.5-0.01,9.63,5.85,10.14,9.73
		C775.77,429.84,779.96,468.36,784.41,506.86z"/>
	<path d="M287.06,471.43c0.39,4.73,1.07,9.47,1.09,14.2c0.03,7.04-2.11,13.31-10.32,13.72c-7.48,0.37-10.8-5-11.55-11.69
		c-1.25-11.12-2.15-22.29-3-33.45c-1.49-19.62-2.85-39.25-4.2-58.88c-0.19-2.7-0.24-5.44-0.01-8.13c0.61-7,3.05-13.18,11.18-13.18
		c8.12,0,10.52,5.92,10.98,13.14c1.78,28.1,3.67,56.2,5.52,84.3C286.85,471.45,286.96,471.44,287.06,471.43z"/>
	<path d="M479.7,723.13c4.31,1.81,7.24,2.69,9.81,4.2c4.08,2.4,8.87,4.46,11.69,7.99c13.54,16.94,28.31,13.06,43.87,3.72
		c4.34-2.61,9.02-4.67,13.56-6.95c6.37-3.2,12.91-4.16,16.79,3.05c3.77,7-0.02,12.59-6.19,16.13c-6.74,3.87-13.91,6.98-20.8,10.6
		c-7.14,3.75-14.31,7.47-21.19,11.66c-6.57,4-12.02,2.63-17.6-1.92c-11-8.98-22.58-17.3-33.07-26.83c-3.35-3.04-5.5-9.08-5.36-13.66
		C471.28,728.33,476.78,725.71,479.7,723.13z"/>
	<path d="M254.82,318.83c1.87-12.35,3.02-24.88,5.96-36.97c1.21-4.97,5.43-11.44,9.78-12.98c11.32-4,23.38-6.42,35.34-7.95
		c7.48-0.95,14.84,2.47,14.92,11.53c0.07,8.85-6.85,10.09-14.27,10.78c-7.33,0.68-14.66,2.38-21.7,4.57
		c-2.05,0.64-4.2,4.43-4.4,6.93c-1.01,12.47-1.41,24.99-1.98,37.5c-0.12,2.71,1.05,6.23-0.25,7.97c-2.95,3.94-7.06,9.64-10.73,9.66
		c-3.63,0.02-9.39-5.5-10.47-9.58c-1.76-6.66-0.48-14.12-0.48-21.25C255.97,318.98,255.4,318.91,254.82,318.83z"/>
	<path d="M257.29,598.49c0-6.1-0.29-12.23,0.08-18.31c0.42-6.98,2.91-13.11,11.14-13.13c8.25-0.02,10.91,5.97,10.98,13.07
		c0.09,8.13-1.11,16.31-0.49,24.38c0.3,3.93,2.51,8.76,5.47,11.25c10.86,9.15,22.48,17.4,33.66,26.18
		c5.92,4.65,9.37,10.78,3.99,17.51c-5.5,6.87-11.94,3.94-17.95-0.34c-13.47-9.57-27.3-18.68-40.38-28.76
		c-3.54-2.73-6.13-8.04-7-12.58c-1.18-6.22-0.3-12.83-0.3-19.28C256.77,598.49,257.03,598.49,257.29,598.49z"/>
	<path d="M420.29,284.81c-13.03-2.03-26.11-3.77-39.07-6.2c-6.59-1.24-11.55-5.24-9.97-12.85c1.52-7.35,7.67-10.16,14.06-8.53
		c26.4,6.72,52.54,3.95,78.77-0.63c3.59-0.63,8.56-1.34,10.87,0.51c3.97,3.2,9.04,8.67,8.63,12.66c-0.43,4.1-6.66,10.54-10.71,10.82
		c-17.4,1.2-34.92,0.51-52.4,0.51C420.41,282.34,420.35,283.58,420.29,284.81z"/>
	<path d="M747.56,276.61c-11.32,1.97-20.61,3.4-29.82,5.24c-7.24,1.45-13.36,0.38-15.02-7.68c-1.6-7.73,3.22-12.56,10.24-13.87
		c12.6-2.35,25.34-4.62,38.1-5.3c11.96-0.64,17.47,5.85,18.13,18.32c0.7,13.18,1.47,26.36,2.01,39.55
		c0.29,7.24-2.24,13.1-10.33,13.64c-8.1,0.54-12.94-4.06-13.2-12.12C747.27,302.27,747.56,290.13,747.56,276.61z"/>
	<path d="M573.79,285.48c-7.46,0.36-14.91,0.99-22.37,1c-6.98,0.01-13.34-2.18-13.81-10.38c-0.47-8.16,5.28-11.27,12.46-11.77
		c28.42-1.99,56.85-3.94,85.29-5.62c7.81-0.46,14.99,2.19,15.19,11.25c0.2,9.27-6.97,11.04-14.83,11.51
		c-20.65,1.25-41.27,2.86-61.91,4.32C573.8,285.69,573.8,285.59,573.79,285.48z"/>
	<path d="M698.75,673.09c-1.71,1.82-4.21,6.23-7.99,8.23c-25.45,13.43-51.08,26.53-76.93,39.18c-2.88,1.41-8.86,0.64-10.92-1.51
		c-2.49-2.59-3.7-8.04-2.9-11.69c0.75-3.4,4.29-7.17,7.58-8.87C632.58,685.56,657.73,673,683,660.7
		C691.71,656.47,699.73,661.76,698.75,673.09z"/>
	<path d="M770.64,575.82c0,14.22,0.46,28.47-0.28,42.65c-0.22,4.2-2.78,9.88-6.1,12.02c-10.72,6.9-22.06,12.99-33.71,18.18
		c-2.74,1.22-9.58-1.31-10.98-3.99c-1.74-3.32-1.43-10.11,0.94-12.67c3.88-4.2,9.89-6.8,15.43-8.98c8.13-3.19,12.38-7.54,12.1-17.25
		c-0.33-11.11,1.29-22.34,2.82-33.41c0.93-6.73,5.1-11.24,12.65-10.39C769.62,562.67,772.73,567.84,770.64,575.82z"/>
	<path d="M430.39,725.31c-1.65-0.83-4.7-2.15-7.53-3.84c-22-13.12-44.09-26.11-65.8-39.71c-3.36-2.1-7.12-7.32-6.75-10.65
		c0.4-3.56,5.06-8.6,8.63-9.34c4.81-1,11.07,0.2,15.44,2.69c19.44,11.08,38.57,22.75,57.49,34.72c4.07,2.58,7.88,6.76,9.94,11.09
		C445.28,717.59,439.83,725.19,430.39,725.31z"/>
</g>
</svg>
