<?xml version="1.0" encoding="utf-8"?>
<!-- Generator: Adobe Illustrator 25.0.0, SVG Export Plug-In . SVG Version: 6.00 Build 0)  -->
<svg version="1.1" id="Layer_1" xmlns="http://www.w3.org/2000/svg" xmlns:xlink="http://www.w3.org/1999/xlink" x="0px" y="0px"
	 viewBox="0 0 1000 1000" style="enable-background:new 0 0 1000 1000;" xml:space="preserve">
<g>
	<path d="M486.04,111.65c23.45,0,46.95-0.96,70.34,0.23c31.69,1.61,61.16,11.95,89.21,26.5c23.54,12.22,47.15,24.31,70.7,36.5
		c40.91,21.18,70.15,53.95,93.32,92.97c9.17,15.44,21.82,29.24,28.59,45.57c10.58,25.55,17.27,52.69,26.05,79.01
		c13.14,39.39,10.67,80.03,8.41,120.25c-1.18,21.07-8.3,41.83-13.1,62.65c-2.36,10.24-5.1,20.44-8.43,30.4
		c-16.91,50.66-39.47,98.53-76.1,138.1c-20.92,22.6-42.76,45-67.2,63.54c-23.6,17.91-50.99,30.87-76.89,45.7
		c-5.86,3.36-12.98,4.63-18.58,8.29c-28.34,18.46-59.89,28.48-92.97,31.32c-23.17,2-46.97,0.2-70.19-2.46
		c-61.96-7.11-118.74-30.39-174.36-57.42c-23.91-11.62-44.01-27.83-60.14-47.8c-49.32-61.07-85.72-128.24-98.49-207.32
		c-9.9-61.33-6.48-121.12,10.13-180.48c2.9-10.37,7.59-20.39,12.6-29.99c19.14-36.68,33.08-76.42,60.16-108.48
		c13.3-15.75,29.24-29.3,44.25-43.56c5.9-5.61,12.91-10.06,18.78-15.7c33.03-31.75,71.54-53.98,113.61-72.34
		c36.01-15.72,72.68-17.33,110.27-17.96C486.01,110,486.03,110.83,486.04,111.65z M487.41,133.95c-31.05-3.08-61.51-1.46-91.29,9.54
		c-43.61,16.11-83.41,37.86-116.91,70.48c-7.28,7.09-15.57,13.17-23.46,19.62c-22.81,18.65-43.49,39.19-57.35,65.58
		c-9.47,18.03-17.46,36.93-27.95,54.33c-20.67,34.26-29.97,72.08-35.46,110.77c-5.27,37.15-2.2,74.29,3.66,111.52
		c11.92,75.67,47.77,139.32,95.56,197.32c7.9,9.59,16.95,19.38,27.58,25.34c25.39,14.23,51.46,27.6,78.31,38.79
		c36.05,15.01,73.19,26.89,112.44,31.47c39.75,4.64,78.99,4.89,116.54-10.54c23.52-9.67,46.7-20.45,69.14-32.39
		c49.13-26.14,91.52-61.01,126.77-103.97c11.78-14.35,22.1-30.22,30.97-46.54c16.67-30.67,30.47-62.3,39.94-96.49
		c12.71-45.88,19.32-91.96,14.34-138.76c-3.17-29.73-12.42-58.94-20.3-88.01c-3.23-11.89-9.38-23.18-15.42-34.06
		c-8.89-16-18.12-31.91-28.55-46.93c-17.85-25.7-36.55-51.15-64.51-66.96c-27.79-15.72-56.35-30.09-84.61-44.97
		c-27.02-14.23-55.3-24.45-86.24-25.06C529.55,133.61,508.47,133.95,487.41,133.95z"/>
	<path d="M500.96,197.06c19.4,1.53,43.32,1.79,66.64,5.64c31,5.12,58.89,18.54,82.99,39.13c21.19,18.11,43.6,34.98,63.38,54.5
		c37.42,36.96,67.49,78.3,77.29,132.21c7.38,40.58,4.43,80.05-2.34,120.16c-5.11,30.28-14.81,58.65-29.77,84.97
		c-15.22,26.78-35.81,49.37-61.07,67.54c-12.14,8.73-23.23,18.95-35.56,27.38c-16.51,11.29-32.89,23.37-50.91,31.7
		c-24.34,11.25-50.23,18.47-77.51,20.4c-20.61,1.46-40.99,6.94-61.58,7.66c-25.34,0.89-51.11,0.89-76.12-2.68
		c-39.99-5.7-71.58-29.12-99.01-56.99c-15.1-15.34-27.43-33.75-39.16-51.96c-13.19-20.48-24.32-42.29-36.32-63.53
		c-1.17-2.07-2.19-4.22-3.18-6.39c-24.94-54.91-29.72-112.21-20.01-171.11c1.14-6.95,3.88-13.71,6.43-20.34
		c21.23-55.07,54.22-103.26,95.19-144.61c37.1-37.45,80.76-66.98,137.16-69.05C457.17,200.97,476.8,198.87,500.96,197.06z
		 M497.65,219.32c-26.48,2.47-55.63,2.95-83.84,8.36c-41.63,7.98-73.42,34.52-102.46,63.54c-13.37,13.35-24.06,29.42-35.63,44.52
		c-37.44,48.88-62.74,101.85-59.73,165.65c1.66,35.23,12.28,67.67,24.84,99.9c0.49,1.26,1.36,2.36,1.92,3.59
		c12.95,28.16,29.56,54.02,47.55,79.26c27.46,38.51,60.79,68.65,108.13,79.33c25.99,5.87,52.46,6.59,78.95,1.29
		c13.29-2.66,26.88-3.85,40.34-5.68c16.81-2.28,33.94-3.17,50.36-7.08c31.88-7.59,60.06-23.08,85.24-44.09
		c10.43-8.71,21.24-16.99,32.2-25.02c22.27-16.3,40.73-36.27,54.15-60.11c13.49-23.98,22.22-49.76,27.1-77.28
		c6.82-38.46,9.18-76.29,2-115.06c-8.94-48.26-36.88-84.71-70.1-117.84c-18.23-18.18-39.24-33.57-58.63-50.62
		c-22-19.34-47.26-32.45-75.98-37.15C543.06,221.39,521.53,221.17,497.65,219.32z"/>
	<path d="M509.12,408.75c1.15-41.78,20.22-54.5,50.86-66.27c5.65-2.17,11.51-4.15,17.46-5.16c22.14-3.77,45.58,9.03,56.18,29.73
		c16.89,32.99,12.61,91.99-43.86,112.04c-26.72,9.49-55.36-0.95-69.81-28.55c-6.58-12.56-9.13-27.22-13.51-40.93
		C507.33,409.32,508.22,409.03,509.12,408.75z M619.6,403.44c1.7-19.72-8.78-33.88-24.5-44.38c-12.35-8.25-22.47,2.08-33.1,6.37
		c-3.45,1.39-6.88,3.08-9.91,5.21c-4.64,3.27-10.12,6.23-13.17,10.73c-13.8,20.37-8.89,53.46,9.62,69.98
		c10.81,9.65,22.8,11.08,36.01,5.71C608.43,447.38,619.96,429.61,619.6,403.44z"/>
	<path d="M393.02,516.36c11.75-3.96,20.59,3.01,29.93,9.64c39.99,28.38,36.79,72.44,13.18,103.63
		c-14.02,18.53-32.55,28.71-56.63,25.32c-4.94-0.69-10.74-1.63-14.31-4.62c-26.81-22.5-50.78-60.18-26.88-99.22
		C350.57,531.09,365.21,513.85,393.02,516.36z M430.35,578.75c2.88-13.02-7.5-20.51-13.97-29.71
		c-10.13-14.42-28.71-16.89-42.45-5.78c-23.87,19.31-33.13,47.38-6.89,77.75c12.44,14.4,28.45,16.28,43.01,3.85
		C424.14,612.82,431.19,597.79,430.35,578.75z"/>
	<path d="M574.37,523.04c27.21-1.25,53.55,19.49,62.98,47.41c13.31,39.46-16.63,83.48-58.13,85.81
		c-30.82,1.73-48.33-17.19-61.77-40.67c-12.51-21.88-5.02-43.38,7.71-62.19C537.16,535.65,552.52,520.86,574.37,523.04z
		 M617.54,589.11c0.21-17.85-23-46.87-37.38-46.73c-22.29,0.22-45.85,26.67-45.99,51.64c-0.1,16.85,22.8,39.65,40.07,39.9
		C599.84,634.3,617.22,616.31,617.54,589.11z"/>
	<path d="M342.02,411.69c1.94-9.56,3.03-19.39,5.98-28.62c8.02-25.07,29.08-33.51,52.17-38.16c10.1-2.04,20.66-3.19,30.87-2.58
		c4.78,0.29,11.07,4.71,13.51,9.04c5.91,10.51,12.19,21.65,14.34,33.27c5.49,29.74-1.92,56.21-24.91,77.55
		c-17.62,16.36-37.35,16.63-57.78,8c-20.82-8.79-29.92-26.55-32.67-48.05c-0.43-3.34-0.06-6.78-0.06-10.17
		C342.99,411.87,342.5,411.78,342.02,411.69z M365.61,411.85c0,2.71-0.31,5.47,0.05,8.13c1.81,13.5,7.1,24.96,20.57,30.39
		c13.53,5.45,25.37,3.2,36.23-7.52c17.65-17.41,21.32-56.73,5.9-76.45c-1.74-2.22-5.81-4.4-8.3-3.94
		c-7.85,1.45-15.52,3.97-23.15,6.43C372.52,376.74,365.74,386.11,365.61,411.85z"/>
</g>
</svg>
