<?xml version="1.0" encoding="utf-8"?>
<!-- Generator: Adobe Illustrator 25.0.0, SVG Export Plug-In . SVG Version: 6.00 Build 0)  -->
<svg version="1.1" id="Layer_1" xmlns="http://www.w3.org/2000/svg" xmlns:xlink="http://www.w3.org/1999/xlink" x="0px" y="0px"
	 viewBox="0 0 1000 1000" style="enable-background:new 0 0 1000 1000;" xml:space="preserve">
<g>
	<path d="M318,687.09c24.47,34.61,47.93,67.79,71.39,100.96c4.09,5.78,5.86,11.97-0.55,16.8c-6.24,4.71-12.33,1.9-16.58-3.64
		c-6.69-8.72-12.8-17.88-19.15-26.86c-12.89-18.24-25.62-36.59-38.73-54.67c-4.24-5.84-9.46-10.96-16.83-19.37
		c-5.88,7.23-10.62,13.65-15.96,19.51c-12.57,13.8-25.1,27.67-38.31,40.85c-6.54,6.52-14.27,11.96-21.98,17.12
		c-5.56,3.73-13.16,5.26-16.98-1.11c-2.46-4.09-2.67-12.34-0.09-16.17c12.45-18.46,26.07-36.15,39.51-53.93
		c8.38-11.09,17.18-21.86,26.36-33.5c-6.58-5.63-12.14-10.31-17.62-15.09c-30.78-26.9-46.48-61.48-48.45-101.64
		c-0.61-12.38,3.49-25.84,8.5-37.48c10.04-23.33,29.62-34.09,54.7-35.52c43.45-2.47,85.01,4.81,124.28,23.9
		c4.12,2,7.89,4.72,11.87,7.13c1.03-0.75,1.98-1.18,2.56-1.91c24.99-31.18,49.81-62.49,74.95-93.55c11.73-14.5,24.43-28.23,36-42.85
		c9.52-12.03,9.11-12.44-1.55-23.38c-22.52-23.12-31.28-49.94-21.51-81.46c5.67-18.31,17.54-33.1,33.82-41.7
		c9.68-5.12,23.34-5.47,34.68-3.95c12.14,1.62,23.99,7.23,35.32,12.49c6.78,3.15,12.08,5.11,17.5-1.36c0.42-0.5,1.07-0.79,1.59-1.21
		c11.46-9.45,21.59-20.89,38.61-20.44c24.71,0.65,48.42,4.54,69.85,17.72c1.41,0.87,2.92,1.83,3.87,3.12
		c8.41,11.4,18.1,22.14,24.7,34.52c9.5,17.82,6.8,36.32-3.6,53.28c-6.07,9.89-13.34,19.05-20.03,28.47
		c12.49,14.13,33.8,18.11,50.06,10.29c11.36-5.47,23.31-9.73,34.75-15.06c4.7-2.19,9.11-5.37,12.99-8.84
		c3.69-3.3,6.36-7.7,9.74-11.38c4.31-4.7,10.35-7.15,14.79-2.16c2.74,3.08,4.17,10.73,2.24,13.98
		c-7.7,12.95-17.27,24.43-32.74,29.28c-8.54,2.68-17.33,5.49-24.94,10.04c-24.84,14.86-48.77,12.85-72.62-1.88
		c-3.37-2.08-6.83-4.01-9.91-5.8c-31.41,28.4-62.41,56.44-94.07,85.07c4.47,4.77,8.57,8.58,12.01,12.91
		c22.86,28.78,30.2,62.05,25.88,97.76c-1.14,9.43-6.03,19.37-11.84,27.09c-14.05,18.67-29.98,35.96-51.6,46.25
		c-6.76,3.22-14.52,5.59-21.94,5.93c-29.23,1.33-56.71-4.07-80.86-22.31c-14.84-11.2-30.54-21.27-46.13-31.43
		c-2.02-1.32-6.08-0.92-8.53,0.17c-3.57,1.59-6.64,4.41-9.76,6.91c-35.02,28.1-70.02,56.25-105.02,84.38
		C320.83,684.81,319.03,686.26,318,687.09z M297.78,672.67c0.65,0.6,1.31,1.21,1.96,1.81c5.64-5.12,11.12-10.42,16.95-15.33
		c8.9-7.5,17.91-14.89,27.11-22.02c14.45-11.2,29.19-22.02,43.62-33.25c9.98-7.77,19.23-16.54,29.51-23.87
		c35.52-25.35,72.39-48.93,106.8-75.69c40.97-31.85,83.76-61.76,119.09-100.41c3.1-3.39,7.26-5.82,11-8.62
		c31.02-23.21,57.32-51.07,77.66-83.87c4.79-7.72,7.41-22.76,3.12-28.98c-11.57-16.81-22.05-37.06-45.13-41.63
		c-22.24-4.41-45.22-9.73-60.98,15.53c10.44,7.81,21.31,15.95,32.39,24.24c3.43-2.72,6.17-5.11,9.13-7.2
		c7.5-5.3,15.77-8.59,24.06-2.75c8.01,5.64,10.32,14.95,6.37,23.24c-4.28,8.98-10.2,18-17.62,24.46
		c-9.16,7.97-20.27,13.97-31.21,19.48c-4.64,2.34-11.9,3.3-16.35,1.29c-6.84-3.09-6-10.63-3.09-16.72
		c4.11-8.62,8.89-16.92,13.57-25.7c-11.34-8.51-22.71-17.05-34.69-26.05c-1.95,2.34-3.63,3.99-4.89,5.91
		c-15.56,23.57-31.81,46.72-46.35,70.91c-13.75,22.87-27.43,45.41-45.15,65.73c-28,32.1-54.71,65.37-81.01,98.89
		c-24.07,30.67-47.26,61.78-75.27,89.35C336.23,623.19,317.84,648.77,297.78,672.67z M603.96,471.03
		c-47.95,35.21-95.03,69.77-142.53,104.65c2.47,2.36,4.72,5.5,7.77,7.27c24.19,14.04,45.17,33.72,74.22,39.23
		c19.25,3.65,37.49,4.34,52.98-8.74c11.87-10.01,22.61-21.52,32.8-33.28c4.12-4.75,7.29-11.8,7.74-18.03
		C639.53,526.74,632.14,494.63,603.96,471.03z M283.43,654.12c35.61-40.12,71.29-80.3,107.88-121.52
		c-5.81-3.26-9.96-5.93-14.39-8.01c-32.68-15.39-67.28-20.6-103.13-19.5c-27.49,0.85-41.19,10.3-46.31,37.3
		c-2.37,12.49-0.84,26.67,2.55,39.1C238.33,611.96,255.11,637.24,283.43,654.12z M536.12,341.19
		c17.85-27.35,35.72-54.75,53.92-82.63c-4.1-2.35-8.39-5.91-13.31-7.43c-12.9-3.96-27.29-10.74-39.37-2.25
		C502.17,273.65,503.73,317.56,536.12,341.19z"/>
</g>
</svg>
