<?xml version="1.0" encoding="utf-8"?>
<!-- Generator: Adobe Illustrator 25.0.0, SVG Export Plug-In . SVG Version: 6.00 Build 0)  -->
<svg version="1.1" id="Layer_1" xmlns="http://www.w3.org/2000/svg" xmlns:xlink="http://www.w3.org/1999/xlink" x="0px" y="0px"
	 viewBox="0 0 1000 1000" style="enable-background:new 0 0 1000 1000;" xml:space="preserve">
<g>
	<path d="M202.73,462.18c4.76,2.26,8.81,3.28,11.66,5.7c7.48,6.38,15.09,12.81,21.49,20.21c23.02,26.62,45.5,53.71,68.35,80.48
		c5.32,6.23,11.28,11.92,16.96,17.84c6.25,6.5,7.28,13.77,2.06,18.13c-6.47,5.41-12.35,3-17.23-2.58
		c-22.5-25.74-44.56-51.87-67.43-77.27c-13.34-14.81-28.15-28.28-41.73-42.89c-2.58-2.77-4.06-8.42-3.14-12
		C194.52,466.74,199.48,464.75,202.73,462.18z"/>
	<path d="M854.76,378.23c-1.58-1.01-5.17-2.35-7.43-4.88c-32.63-36.6-65.1-73.35-97.53-110.12c-2.81-3.19-5.53-6.63-7.47-10.37
		c-3.01-5.84-2.84-11.86,3.34-15.59c5.83-3.52,10.35-0.63,14.54,4.11c32.94,37.22,66.06,74.28,99.05,111.46
		c3.02,3.41,6.3,6.95,8.06,11.04C870.56,371.4,864.7,378.86,854.76,378.23z"/>
	<path d="M687.54,359.76c-3.09,3.87-4.95,8.48-7.83,9.24c-3.83,1-9.46,0.32-12.5-2c-5.94-4.53-11.32-10.2-15.7-16.29
		c-15.73-21.87-35.55-39.52-56.03-56.7c-12.59-10.56-24.3-22.18-36.05-33.69c-5.28-5.17-8.67-11.92-1.86-18.06
		c6.85-6.17,12.48-1.45,17.87,3.67c12.87,12.25,25.47,24.86,39.15,36.16c19.13,15.8,37.06,32.54,51.68,52.71
		c3.21,4.43,8.25,7.51,11.9,11.69C681.46,350.29,684.04,354.73,687.54,359.76z"/>
	<path d="M518.56,814.65c-2.32,2.75-4.54,7.75-7.15,7.96c-4.6,0.37-10.69-0.81-13.95-3.77c-14.61-13.27-28.29-27.56-42.6-41.17
		c-20.53-19.51-41.33-38.73-62-58.1c-2.16-2.02-5.34-3.88-5.99-6.36c-1.06-4.02-2.16-10.23-0.05-12.34
		c2.66-2.65,9.07-3.75,12.86-2.5c4.67,1.54,8.53,5.96,12.36,9.54c27.65,25.88,55.22,51.85,82.79,77.81
		c6.57,6.18,13.31,12.21,19.46,18.78C516.36,806.73,516.85,810.4,518.56,814.65z"/>
	<path d="M377.57,472.6c3.02-3.86,4.86-8.56,7.64-9.21c3.8-0.88,9.85-0.13,12.3,2.43c18.83,19.7,37.16,39.88,55.37,60.16
		c15.53,17.29,30.58,35,46.07,52.32c4.93,5.52,7.78,11.3,2.35,17.4c-5.55,6.23-12.1,4.52-17.19-0.98
		c-13.36-14.43-26.43-29.13-39.52-43.81c-18.56-20.82-37.12-41.65-55.49-62.63C385.12,483.72,381.87,478.5,377.57,472.6z"/>
	<path d="M315.2,356.86c-3.35,3.92-5.51,8.79-8.63,9.52c-4.19,0.98-10.12,0.1-13.52-2.4c-6.01-4.41-10.79-10.54-15.88-16.15
		c-26.53-29.25-53-58.54-79.46-87.86c-2.86-3.17-6.7-6.17-7.86-9.93c-1.16-3.77-1.05-10.35,1.27-12.15
		c2.97-2.31,8.71-1.33,13.25-1.22c1.28,0.03,2.64,1.85,3.74,3.05c26.45,28.88,52.83,57.82,79.33,86.66
		c6.22,6.77,12.89,13.11,19.18,19.81C309.4,349.16,311.75,352.54,315.2,356.86z"/>
	<path d="M204.74,691.25c6.3,3.88,12.4,6.19,16.5,10.42c16.22,16.74,32.05,33.88,47.58,51.28c12.67,14.2,24.74,28.94,36.99,43.52
		c3.16,3.77,6.25,7.66,8.89,11.79c3.59,5.61,3.95,11.6-1.98,15.7c-6.2,4.29-11.76,1.96-16.37-3.54
		c-23.62-28.17-46.98-56.56-71.11-84.28c-7.66-8.8-17.75-15.45-26.02-23.79c-2.77-2.79-5.2-8.18-4.39-11.58
		C195.65,697.35,200.68,694.91,204.74,691.25z"/>
	<path d="M684.42,577.55c-3.32,4.27-5.33,9.43-8.38,10.13c-4.05,0.93-10.15-0.23-13.19-2.93c-13.01-11.56-25.21-24.03-37.71-36.16
		c-18.15-17.61-36.33-35.17-54.44-52.82c-4.46-4.35-9.19-8.56-12.86-13.53c-3.87-5.22-4.3-11.38,1.45-15.8
		c5.45-4.2,10.45-1.8,14.89,2.56c25.3,24.86,50.46,49.88,76.1,74.38c6.95,6.64,15.95,11.13,23,17.69
		C677.77,565.26,680.41,571.44,684.42,577.55z"/>
	<path d="M500.36,358.88c-2.48,3.32-4.02,7.52-6.7,8.44c-3.54,1.21-8.93,1.24-11.78-0.73c-4.71-3.25-7.9-8.62-11.96-12.89
		c-22.86-24.07-45.76-48.11-68.7-72.1c-7.05-7.37-14.43-14.42-21.36-21.89c-4.92-5.31-7.37-11.7-1.08-17.34
		c5.86-5.26,11.65-2.42,16.45,2.59c32.96,34.44,65.93,68.86,98.74,103.43C496.54,351.07,497.96,354.85,500.36,358.88z"/>
	<path d="M736.84,379.11c-3.41-2.73-7.75-4.53-8.77-7.48c-1.18-3.41-0.87-9.01,1.27-11.6c10.4-12.58,21.47-24.62,32.64-36.53
		c4.63-4.94,10.78-7.27,16.61-2.19c6.01,5.23,3.96,11.09-0.66,16.36c-10.13,11.56-20.15,23.23-30.55,34.54
		C744.92,374.91,741.1,376.39,736.84,379.11z"/>
	<path d="M645.73,286.26c-4.56-3.62-8.94-5.73-10.97-9.2c-1.35-2.31-0.49-7.41,1.32-9.82c7.43-9.88,15.61-19.21,23.51-28.74
		c0.84-1.01,1.68-2.03,2.54-3.02c7.14-8.26,13.61-10.06,19.35-5.37c5.67,4.62,4.35,11-2.65,19.49c-6.68,8.09-12.1,17.23-18.85,25.26
		C656.4,279.12,651.19,281.99,645.73,286.26z"/>
	<path d="M867.6,240.48c-0.94,2.04-1.57,4.78-3.18,6.65c-8.17,9.46-16.34,18.95-25.07,27.88c-3.05,3.12-7.63,6.21-11.7,6.47
		c-3.8,0.24-9.26-2.36-11.3-5.47c-1.61-2.45-0.46-8.69,1.76-11.32c8.84-10.52,18.57-20.3,27.99-30.33
		c6.9-7.34,16.03-7.43,19.81-0.11C866.77,235.94,866.94,237.99,867.6,240.48z"/>
	<path d="M415.93,549.58c-0.22,2.67-0.14,3.05-0.28,3.31c-8.15,14.9-15.93,30.03-24.88,44.43c-1.4,2.26-9.56,3.07-12.08,1.19
		c-3.06-2.28-5.95-9.33-4.55-12.22c6.68-13.81,14.34-27.24,22.83-40.02c1.9-2.87,8.68-3.89,12.9-3.35
		C412.53,543.26,414.64,548.06,415.93,549.58z"/>
	<path d="M556.51,355.74c1.5-3.66,1.98-6.02,3.27-7.79c7.16-9.79,14.11-19.78,22.03-28.94c2.89-3.34,8.1-5.81,12.51-6.31
		c2.91-0.33,7.45,2.92,9.11,5.8c1.4,2.42,0.91,7.5-0.84,9.88c-8.11,11.06-16.53,21.99-25.81,32.08c-2.65,2.88-8.81,4.29-12.87,3.58
		C560.95,363.52,558.77,358.45,556.51,355.74z"/>
	<path d="M417.16,327.62c-0.94,3.27-1.02,5.46-2.08,6.97c-7.7,10.93-15.02,22.21-23.62,32.4c-5.96,7.05-14.21,6.96-19.01,1.74
		c-4.88-5.3-2.81-11.36,4.31-18.2c5.33-5.12,9.3-11.65,13.87-17.57c2.99-3.87,5.3-8.71,9.13-11.32c2.93-1.99,8.13-2.33,11.65-1.23
		C414.03,321.21,415.57,325.48,417.16,327.62z"/>
	<path d="M278.82,515.88c-3.58-3.17-8.6-5.53-9.37-8.87c-0.81-3.47,1.39-9.08,4.2-11.67c8.36-7.69,17.75-14.26,26.59-21.43
		c5.75-4.66,12.01-8.58,18.3-2.21c6.47,6.55,2.4,12.54-3.16,17.69c-6.26,5.8-12.05,12.2-18.8,17.35
		C291.77,510.4,285.71,512.43,278.82,515.88z"/>
	<path d="M184.65,582.6c11.7-15,22.38-29.16,33.84-42.68c1.16-1.37,8.44,0,10.28,2.23c2.2,2.67,3.47,8.74,1.88,11.41
		c-7.34,12.41-15.39,24.48-24.18,35.92c-2.11,2.74-8.35,4.06-12.09,3.26C191.25,592.07,188.97,587.36,184.65,582.6z"/>
	<path d="M184.62,370.05c1.76-4.25,2.58-7.13,4.05-9.62c5.67-9.62,11.08-19.46,17.51-28.56c5-7.06,13.1-8.17,17.95-3.45
		c5.82,5.66,3.15,10.86-0.76,16.59c-6.29,9.21-11.16,19.45-17.94,28.25c-2.55,3.31-8.81,5.23-13.27,5.06
		C189.49,378.21,187.02,372.85,184.62,370.05z"/>
	<path d="M492.49,466.31c-0.27,7.92-26.38,40.2-32.14,40.51c-3.46,0.18-8.34-1.21-10.23-3.68c-1.89-2.48-2.51-8.36-0.82-10.7
		c7.85-10.92,16.27-21.52,25.49-31.3c2.29-2.42,8.6-2.45,12.52-1.45C489.87,460.34,491.43,464.84,492.49,466.31z"/>
	<path d="M191.48,810.08c9.54-13.17,18.11-25.85,27.82-37.59c1.65-2,9.98-1.61,12.03,0.61c2.52,2.73,3.64,9.57,1.92,12.83
		c-5.63,10.7-12.23,21.06-19.76,30.51c-2.52,3.17-9.1,4.67-13.54,4.21C197.25,820.36,195.11,814.86,191.48,810.08z"/>
	<path d="M508.29,236.89c-1.69,3.66-2.29,6.9-4.22,8.82c-7.9,7.87-15.83,15.78-24.46,22.8c-6.62,5.38-15.83,4.01-19.17-2.07
		c-4.18-7.62,0.36-11.54,6.37-15.95c8.43-6.17,15.46-14.22,23.83-20.48c2.75-2.06,8.18-2.23,11.68-1.09
		C504.92,229.77,506.36,234.13,508.29,236.89z"/>
	<path d="M330.43,236.77c-1.06,1.68-2.42,5.24-4.94,7.54c-8.24,7.53-16.48,15.21-25.65,21.49c-2.94,2.01-11.09,1.48-12.72-0.82
		c-2.36-3.33-3.13-11.36-0.8-13.8c9.01-9.44,19-18.19,29.66-25.75C322.71,220.65,331.23,226.93,330.43,236.77z"/>
	<path d="M390.76,822.11c-9.61,0.34-14.97-8.35-10.28-15.94c6.02-9.77,12.52-19.4,20.01-28.05c2.42-2.8,9.3-4.12,12.88-2.78
		c2.74,1.03,6.03,8.73,4.74,11.01c-6.6,11.62-14.5,22.53-22.27,33.45C394.71,821.35,391.81,821.66,390.76,822.11z"/>
	<path d="M458.5,721.85c-0.12-8.71,27.74-32.53,36.34-31.05c7.85,1.34,11.38,10.54,5.36,16.76c-7.97,8.23-16.82,15.79-26.15,22.45
		C467.08,734.98,458.62,729.96,458.5,721.85z"/>
	<path d="M598.61,556.02c-0.97,3.62-1.06,5.76-2.05,7.32c-5.76,9.09-11,18.7-18.03,26.72c-2.59,2.95-10.47,4.09-14.4,2.42
		c-5.99-2.54-5.49-9.12-2.19-14.41c5.35-8.59,10.44-17.47,16.92-25.16c2.48-2.94,8.56-4.21,12.8-3.85
		C594.35,549.28,596.66,553.92,598.61,556.02z"/>
	<path d="M278.07,741c-2-1.5-6.25-3.06-7.06-5.68c-1.09-3.5-0.99-9.19,1.2-11.54c6.86-7.36,14.46-14.3,22.8-19.88
		c2.9-1.94,9.69-0.76,12.98,1.49c2.17,1.49,3.18,9.26,1.43,11.08c-8.05,8.4-17.22,15.73-26.1,23.32
		C282.46,740.53,280.84,740.4,278.07,741z"/>
	<path d="M661.25,464.62c3.33,2.67,7.99,4.61,9.07,7.77c1.1,3.23-0.24,8.45-2.42,11.38c-4.6,6.19-10.46,11.44-15.78,17.1
		c-4.52,4.81-9.89,7.12-15.71,3.1c-5.99-4.14-5.74-10.08-1.75-15.5c4.43-6.03,9.09-12,14.4-17.24
		C651.89,468.42,656.31,467.2,661.25,464.62z"/>
</g>
</svg>
