<?xml version="1.0" encoding="utf-8"?>
<!-- Generator: Adobe Illustrator 25.0.0, SVG Export Plug-In . SVG Version: 6.00 Build 0)  -->
<svg version="1.1" id="Layer_1" xmlns="http://www.w3.org/2000/svg" xmlns:xlink="http://www.w3.org/1999/xlink" x="0px" y="0px"
	 viewBox="0 0 1000 1000" style="enable-background:new 0 0 1000 1000;" xml:space="preserve">
<g>
	<path d="M720.47,671.59c-22.33,26.5-48.03,47.23-74.4,67.49c-24.49,18.81-52.72,26.69-82,30.05c-41.22,4.73-82.47,2.1-122.95-8.12
		c-18.29-4.62-37.49-7.3-54.55-14.77c-29.31-12.83-61.51-19.97-86.38-42.25c-14.98-13.42-31.18-25.48-46.63-38.38
		c-2.77-2.31-4.71-5.69-6.79-8.74c-5.4-7.9-10.67-15.88-15.99-23.84c-0.86-1.29-1.95-2.49-2.51-3.9
		c-7.23-18.06-15.57-35.79-21.22-54.34c-5.91-19.42-10.12-39.49-13.31-59.55c-2.22-13.96-1.96-28.38-1.95-42.6
		c0.03-36.03,2.13-71.69,14.12-106.35c8.68-25.08,22.68-46.86,38.83-67.16c30.54-38.36,71.8-64.21,111.89-91.08
		c22.17-14.86,48.94-18.77,73.69-27.52c51.96-18.36,104.26-13.43,154.64,2.59c46.45,14.77,89.92,37.69,123.5,74.94
		c6.15,6.82,10.84,15.09,15.45,23.13c15.76,27.51,29.17,56.04,36.52,87.08c0.57,2.41,1.08,4.86,1.94,7.17
		c22.76,61.62,15.16,123.05-1.5,184.29c-4.77,17.55-5.16,17.01,10.17,27.41c33.38,22.62,57.2,52.85,70.45,91.02
		c3.76,10.83,1.9,21.67-3.4,31.51c-15.84,29.41-36.5,53.81-69.37,65.44c-19.29,6.83-38.37,14.26-57.53,21.45
		c-3.19,1.2-6.83,1.92-9.41,3.95c-28.37,22.33-62.42,37.35-85.49,66.55c-7.42,9.39-14.15,18.65-15.14,31.18
		c-0.62,7.88-5.81,11.05-13.7,10.25c-13.24-1.35-26.74-1.35-39.66-4.1c-7.61-1.62-14.81-6.84-21.16-11.76
		c-2.08-1.61-2.06-7.7-1.08-11.21c17.47-62.05,56.15-104.25,117.93-124.67c19.68-6.5,39.19-13.54,58.94-19.82
		c18.56-5.9,37.41-10.87,55.96-16.77c6.43-2.05,13.97-5.08,12.8-13.64c-1.11-8.18-7.65-12.58-15.54-14
		C741.73,689.98,729.52,684.67,720.47,671.59z M585.43,353.59c-8.2,9.83-15.58,17.84-22.01,26.54
		c-24.91,33.68-58.48,57.85-91.05,83.1c-4.12,3.19-8.95,5.6-13.71,7.82c-21.57,10.08-42.82,21.03-64.97,29.67
		c-31.09,12.12-62.52,23.63-94.47,33.21c-24.78,7.43-50.56,11.49-78.28,17.58c6.25,16.15,12.93,33.39,19.56,50.51
		c19.2-6.1,36.68-11.48,54.05-17.2c30-9.87,59.93-19.96,89.9-29.92c17.64-5.86,35.35-11.49,52.93-17.51
		c34.25-11.72,66.91-26.56,94.69-50.37c13.66-11.71,26.36-24.59,40.47-35.7c22.38-17.62,35.65-41.43,48.77-66.95
		C609.62,374.35,597.95,364.33,585.43,353.59z M752.14,488.97c1.04-0.11,2.09-0.21,3.13-0.32c0-16.31-0.76-32.66,0.23-48.91
		c0.86-14-3.19-25.97-12.31-35.77c-12.84-13.79-26.27-27.11-40.27-39.73c-20.24-18.24-41.17-35.73-61.94-53.37
		c-3.03-2.57-6.73-4.44-10.32-6.23c-27.78-13.79-55.32-28.09-83.5-41c-25.31-11.59-50.84-23.14-77.23-31.82
		c-20.18-6.63-41.75-9.39-62.89-12.57c-9.37-1.41-20.7-2.56-28.57,1.34c-17.64,8.74-33.68,20.69-50.32,31.43
		c-1.32,0.85-2.15,2.45-4.84,5.63c7.97,0,13.78,0.18,19.57-0.03c34.04-1.21,68.02,1.16,100.26,11.82
		c34.67,11.46,68.32,26.08,102.2,39.86c46.73,19,83.61,51.67,118.25,87.02C693.49,426.85,722.65,458.07,752.14,488.97z
		 M249.06,621.19c5.22,8.69,9.62,17.64,15.6,25.38c3.53,4.57,9.55,10.26,14.41,10.22c17.53-0.14,35.62-0.25,52.4-4.61
		c19.64-5.11,38.27-14.3,57.06-22.37c19.65-8.43,39.01-17.54,58.41-26.53c14.31-6.63,28.61-13.29,42.68-20.41
		c9.12-4.62,17.98-9.82,26.64-15.25c15.74-9.86,31.67-19.49,46.74-30.3c18.88-13.53,36.47-28.88,55.58-42.06
		c13.97-9.63,21.14-22.1,22.96-38.33c1.45-12.93,1.11-26.34,4.64-38.67c2.87-10.04-1.73-13.89-8.48-19.4
		c-1.97,2.91-3.94,5.25-5.28,7.9c-12.05,23.77-27.25,45-48.59,61.49c-5.39,4.16-10.41,8.86-15.24,13.67
		c-36.41,36.21-79.8,60.53-128.54,75.97c-31.3,9.92-62.55,20-93.72,30.34C313.98,598.97,281.76,610.1,249.06,621.19z M665.2,430.85
		c-2.05,25.77-5.79,50.08-19.6,71.78c-5.11,8.04-9.08,16.97-12.47,25.91c-20.31,53.56-52.71,99.63-90.63,141.68
		c-18.49,20.51-40.67,37.76-61.51,56.1c-7.08,6.22-15.19,11.27-25.54,18.83c21.8,1.84,41.15,2.93,60.35,5.25
		c16.06,1.94,29.17-0.63,40.26-14.08c12.36-14.99,27.74-27.53,39.88-42.67c14.68-18.31,27.4-38.2,40.86-57.48
		c23.16-33.15,43.01-68.05,54.97-106.89c5.8-18.85,10.68-37.97,15.63-55.74C693.4,459.39,679.74,445.57,665.2,430.85z M378.17,280.5
		c-0.16-0.99-0.32-1.99-0.48-2.98c-10.03,0-20.16-0.88-30.07,0.22c-12.38,1.37-23.98,0.23-35.63-4.21c-3.3-1.26-8.2-0.48-11.61,1.04
		c-18.96,8.46-30.49,25.52-42.45,40.84c-13.94,17.85-26.28,37.17-33.47,59.55c-8.86,27.6-11.91,55.71-12,84.27
		c-0.06,20.39,1.28,40.8,2.47,61.17c0.15,2.54,3.08,6.91,4.91,7.01c8.23,0.43,16.52-0.38,21.98-0.62
		c4.75-23.02,7.72-44.49,13.71-65.08c14.3-49.2,37.09-93.63,75.52-129.22c15.84-14.67,29.45-31.74,44.04-47.75
		C376.26,283.47,377.15,281.92,378.17,280.5z M546.14,883.57c11.39,0.79,21.85,1.75,32.32,2c1.83,0.04,4.21-2.63,5.51-4.6
		c6.12-9.24,11.27-19.21,18.01-27.95c23.86-30.94,59.56-47.04,89.73-70.09c3.57-2.73,8.45-3.8,12.8-5.44
		c18.57-7,37.04-14.32,55.79-20.8c27.66-9.56,45.42-29.73,58.44-54.43c3.08-5.84,3.74-14.76,1.78-21.12
		c-8.35-27.14-26.05-48.34-46.88-66.96c-6.55-5.85-14.36-10.29-21.48-15.3c-7.3,17.19-14.11,33.06-20.69,49.02
		c-0.58,1.42-0.3,3.78,0.54,5.1c5.78,9.05,12.34,17.16,24.07,18.8c3.66,0.51,7.3,1.55,10.81,2.76
		c13.64,4.68,24.51,18.49,24.99,31.83c0.56,15.52-8.6,24.49-21.42,30.76c-3.62,1.77-7.36,3.38-11.19,4.59
		c-33.03,10.39-65.9,21.37-99.22,30.76c-24.12,6.8-45.08,18.46-64.81,33.52C569.29,825.84,556.36,853.3,546.14,883.57z
		 M433.72,201.48c114.52,29.33,218.36,79.82,303.8,165.18c0.06-5-0.46-9.03-2.06-12.57c-9.28-20.59-18.52-41.2-28.4-61.5
		c-3.63-7.45-7.98-15.06-13.73-20.89c-21.24-21.51-44.71-40.18-73.1-51.81c-15.75-6.45-30.87-15.5-47.22-19.14
		c-24.38-5.42-49.54-7.72-74.48-10.16C475.69,188.35,453.56,192.39,433.72,201.48z M724.44,487.98c-1.45,5.52-2.27,8.82-3.18,12.09
		c-8.26,29.84-17.35,59.16-31.12,87.28c-21.59,44.08-53.77,80.87-79.94,121.74c-2.94,4.6-7.59,8.1-11.44,12.13
		c-7.53,7.88-15.05,15.77-22.58,23.66c0.59,1.06,1.18,2.12,1.77,3.19c15.33-6.16,31.92-10.31,45.73-18.9
		c26.32-16.38,50.3-36.21,71.27-59.28c4.13-4.55,8.4-9.44,10.85-14.95c8.41-18.93,16.42-38.07,23.73-57.45
		c2.01-5.32,0.74-11.81,1.54-17.69c0.43-3.15,1.86-6.23,3.22-9.16c1.13-2.43,3.42-4.42,4.16-6.91c3.74-12.45,7.19-24.99,10.59-37.53
		c0.54-2,1.26-4.91,0.3-6.2C741.69,509.69,733.63,499.67,724.44,487.98z M292.3,515.23c5.38-16.04,8.8-30.1,14.74-43
		c7.48-16.25,17.69-31.24,25.54-47.35c19.9-40.82,49.09-72.93,86.68-98.42c12.01-8.15,20.97-20.79,32.38-32.45
		c-6.7-2.61-10.99-4.27-15.27-5.94c-19.08-7.43-34.64-5.38-48.54,12.21c-15.29,19.35-33.64,36.25-50.07,54.73
		c-10.45,11.76-20.97,23.73-29.47,36.89c-20.55,31.82-33.02,67.14-40.98,104c-1.71,7.94-1.16,16.37-1.76,26.34
		C276.96,519.25,286.41,516.78,292.3,515.23z M501.12,311.74c-6.46-2.75-12.13-4.56-17.19-7.46c-7.9-4.52-12.95-2.37-19.16,3.99
		c-26.54,27.18-39.05,61.33-48.86,96.62c-5.99,21.53-5.75,43.83-3.01,67.06c16.04-8.41,31.31-16.31,46.46-24.44
		c3.52-1.89,6.91-4.27,9.78-7.02c1.44-1.37,2.43-4.2,2.19-6.19c-4.45-36.04,0.96-70.24,18.56-102.26
		C493.45,325.57,497.04,319.12,501.12,311.74z M466.92,712.57c-0.21-0.82-0.42-1.65-0.63-2.47c-7.14-1.78-14.19-4.09-21.43-5.23
		c-17.26-2.72-32.69-9.48-46.58-19.85c-5.21-3.89-10.11-8.19-15.13-12.34c-9.48-7.83-18.68-11.4-31.71-5.81
		c-12.86,5.51-27.33,7.34-41.15,10.53c-2.65,0.61-5.56,0.09-8.34,0.09c36.52,31.77,78.94,48.31,124.87,56.87
		c1.85,0.35,4.21-0.19,5.9-1.11c5.64-3.04,11.12-6.4,16.59-9.73C455.22,719.93,461.06,716.23,466.92,712.57z M409.43,360.31
		c-27.6,15.43-91.87,119.14-91.48,146.16c25.31-8.5,50.34-16.91,75.41-25.32C387.72,438.5,392.04,399.63,409.43,360.31z
		 M532.29,654.29c-21.98-4.21-41.96-7.83-61.83-11.94c-6.64-1.38-12.9-4.58-19.55-5.93c-7.79-1.58-16.65-4.65-23.55-2.44
		c-12.72,4.07-24.36,11.52-39.52,19.1c16.19,10.16,29.44,20.86,44.52,27.25c14.92,6.32,31.64,8.54,47.7,11.95
		c3.57,0.76,8.79,0.29,11.37-1.87C505.53,678.62,519.05,666.12,532.29,654.29z M612.18,530.43c-1.4-1.22-2.8-2.44-4.19-3.66
		c-41.53,39.05-91.48,64.91-140.91,93.03c13.35,4.3,26.64,8.68,40.27,10.5c26,3.46,48.86-2.03,62.67-27.35
		c1.17-2.15,3.22-3.82,4.44-5.95C587.08,574.83,599.61,552.62,612.18,530.43z M567.5,342.96c-14.72-7.15-28.15-13.5-41.4-20.19
		c-4.81-2.43-7.43-0.95-9.58,3.41c-6.15,12.48-13.28,24.57-18.41,37.45c-7.25,18.22-8.72,37.47-7.11,57.72
		C523.52,401.73,543.21,371.29,567.5,342.96z"/>
</g>
</svg>
