<?xml version="1.0" encoding="utf-8"?>
<!-- Generator: Adobe Illustrator 25.0.0, SVG Export Plug-In . SVG Version: 6.00 Build 0)  -->
<svg version="1.1" id="Layer_1" xmlns="http://www.w3.org/2000/svg" xmlns:xlink="http://www.w3.org/1999/xlink" x="0px" y="0px"
	 viewBox="0 0 1000 1000" style="enable-background:new 0 0 1000 1000;" xml:space="preserve">
<g>
	<path d="M511.82,414.14c-14.47,0-27.66,0-41.58,0c0,19.83-0.52,39.02,0.12,58.17c1.04,31.11,2.98,62.19,4.27,93.29
		c1.33,31.97,3.24,63.96,3.29,95.94c0.11,69.51-0.85,139.01-1.25,208.52c-0.06,9.79,0.33,19.6,0.88,29.37
		c0.5,8.91-2.87,14.52-9.46,14.69c-6.28,0.17-10.12-4.66-10.14-13.36c-0.06-21.92-0.03-43.85,0.08-65.77
		c0.31-62.01,1.8-124.03,0.71-186.01c-1.02-57.92-4.97-115.78-7.17-173.69c-0.75-19.85-0.12-39.76-0.12-60.31
		c-17.07,0-32.72,0-49.33,0c0,3.68,0.07,6.48-0.01,9.27c-1.36,46.97-2.84,93.94-4.04,140.92c-0.39,15.26,0.12,30.54-0.07,45.81
		c-0.13,10.94-1.06,21.88-1.08,32.81c-0.13,72.09-0.16,144.18-0.02,216.26c0.01,4.52,1.59,9.06,2.61,13.55
		c1.49,6.58-0.16,11.62-7.11,13.48c-5.71,1.53-11.31-3.01-12.32-10.43c-1.46-10.83-3.22-21.75-3.15-32.63
		c0.45-71.22,1.08-142.44,2.21-213.66c1.08-68.59,2.84-137.18,4.26-205.76c0.05-2.52-0.34-5.04-0.52-7.57
		c-12.11,1.06-23.64,1.68-35,3.42c-2.15,0.33-5.07,5.08-5.15,7.86c-0.71,24.78-1.04,49.58-1.11,74.38
		c-0.06,21.32,0.6,42.64,0.53,63.96c-0.16,50.19-0.44,100.38-0.92,150.57c-0.33,35.18-0.95,70.35-1.68,105.53
		c-0.36,17.3-1.21,34.58-2.02,51.86c-0.13,2.81-0.37,6.38-2.06,8.17c-2.29,2.43-6.26,5.07-9.09,4.67c-2.79-0.39-5.24-4.32-7.45-7.01
		c-0.75-0.91-0.42-2.79-0.39-4.22c0.81-46.13,1.73-92.27,2.45-138.4c0.8-50.75,1.68-101.5,2.04-152.25
		c0.37-51.59,0.16-103.18,0.2-154.78c0-3.13,0-6.27,0-9.39c-9.08-1.99-17.58-3.34-25.75-5.78c-11.31-3.38-14.39-7.68-14.25-19.58
		c0.22-19.32,5.92-37.25,18.09-52.13c13.09-16.02,32.18-17.67,51.36-17.67c15.85,0,31.7,0,46.6,0
		c-6.71-18.55-14.62-37.65-20.41-57.38c-4.01-13.68-7.13-28.26-6.85-42.37c0.22-11.3,5.74-22.63,9.61-33.7
		c17.89-51.19,50.93-87.34,104.55-101.61c24.56-6.54,48.16-2.73,69.32,12.23c5.89,4.17,11.58,8.62,17.41,12.88
		c10.83,7.92,17.64,18.4,22.59,30.92c11.47,28.98,20.15,58.33,18.12,89.94c-0.18,2.88,0.15,5.86-0.52,8.62
		c-6.86,28.34-16.22,55.78-30.52,83.34c10.24,0,20.36-0.01,30.47,0c21.08,0.02,42.17-0.2,63.24,0.21
		c9.31,0.18,18.15,8.42,20.24,17.44c0.52,2.24,0.59,4.65,1.44,6.75c10.51,26.2-0.18,37.65-26.46,49.43c-5.25,2.35-6.9,4.47-6.76,9.8
		c1.83,71.5,3.74,142.99,5.05,214.5c0.32,17.23-1.44,34.51-2.35,51.76c-0.26,4.89-1.07,9.76-1.25,14.65
		c-2.05,54.37-4.15,108.74-5.9,163.12c-0.26,8.01,1.37,16.07,1.95,24.12c0.47,6.62-1.02,12.86-8.72,13.52
		c-7.86,0.67-10.08-5.18-10.38-11.95c-1.89-43.5-3.51-86.98,3.47-130.25c0.55-3.41,1.28-6.92,1.04-10.32
		c-3.42-48.39,5.25-96.47,1.87-145.12c-4.07-58.62-2.8-117.61-3.82-176.44c-0.06-3.67-0.01-7.35-0.01-10.84
		c-14.95,1.17-28.89,2.27-43.69,3.43c-0.16,3.2-0.5,6.56-0.47,9.92c0.61,72.98,1.27,145.95,1.92,218.93
		c0.02,2.6,0.08,5.19,0.08,7.79c-0.01,62.28-0.23,124.56,0.1,186.84c0.08,15.23,2.04,30.44,2.96,45.67
		c0.19,3.11,0.54,6.82-0.89,9.26c-1.67,2.86-5.09,6.25-7.94,6.43c-2.86,0.19-7.13-2.63-8.66-5.33c-2.01-3.55-2.51-8.26-2.68-12.5
		c-0.81-19.88-1.7-39.78-1.78-59.67c-0.21-51.89,0.22-103.79-0.03-155.68c-0.4-81.92-1.15-163.83-1.76-245.74
		c-0.01-1.4-0.18-2.81-0.37-5.49c-15.96,0-31.73-0.16-47.49,0.27c-1.46,0.04-4.09,3.84-4.04,5.84c1.01,45.82,2.19,91.64,3.65,137.45
		c0.46,14.4,2.66,28.78,2.61,43.16c-0.25,66.03-0.98,132.05-1.67,198.08c-0.06,5.75-0.63,11.56-1.67,17.21
		c-4.94,26.95-1.24,54.01-1.15,81.02c0.02,4.75,1.69,9.57,3.03,14.23c1.75,6.11,0.89,11.25-5.55,13.44
		c-6.29,2.13-10.88-1.08-12.92-6.97c-1.68-4.87-3.21-10.08-3.27-15.16c-0.32-25.57-0.59-51.16,0.02-76.72
		c0.53-22.17,2.86-44.31,3.32-66.48c0.88-42.67,1.76-85.36,1.18-128.02c-0.43-31.1-3.8-62.15-4.8-93.25
		c-1.21-37.75-1.31-75.54-1.88-113.32C511.78,420.98,511.82,417.84,511.82,414.14z M487.26,396.07c0-0.44,0-0.88,0-1.31
		c8.96,0,17.92,0.29,26.87-0.05c48.93-1.82,98.18,2.82,146.67-8.36c16.92-3.9,23.34-11.65,18.85-27.76
		c-0.39-1.39-0.24-3.27-1.13-4.11c-2.59-2.47-5.53-6.39-8.41-6.44c-19.34-0.39-38.7,0.51-58.03,0.12
		c-16.04-0.33-32.23-0.77-48.03-3.22c-10.38-1.61-11.62-8.51-5.81-17.13c6.23-9.23,12.82-18.4,17.54-28.41
		c5.27-11.16,9.29-23.03,12.59-34.94c3.05-11,5.65-22.4,6.3-33.74c1.48-25.58-6.36-49.42-15.53-73
		c-10.96-28.2-41.97-51.67-72.19-50.09c-42.48,2.22-72.63,26.1-93.65,61.26c-8.77,14.67-13.87,31.61-19.98,47.76
		c-1.94,5.14-3.39,11.44-2.26,16.59c4.13,18.77,8.93,37.44,14.48,55.85c5.26,17.46,11.43,34.55,30.86,42.35
		c2.75,1.1,5.17,7.81,4.56,11.38c-1,5.84-6.57,6.09-11.92,5.13c-4.79-0.85-9.68-1.46-14.53-1.58c-21.66-0.53-43.33-1.25-64.99-1.08
		c-12.67,0.1-27-0.05-34.44,12.05c-6.17,10.02-8.92,22.21-12.71,33.59c-1.54,4.62,0.91,7.86,5.91,8.45
		c5.73,0.67,11.52,1.82,17.22,1.5c23.6-1.33,47.15-3.94,70.76-4.58C426.58,395.45,456.93,396.07,487.26,396.07z"/>
	<path d="M476.78,343.04c-0.07-12.02,9.91-21.52,22.47-21.36c9.36,0.12,15.11,6.37,15.04,16.34c-0.1,13.93-8.43,24.25-19.55,24.22
		C484.3,362.22,476.85,354.25,476.78,343.04z"/>
</g>
</svg>
