<?xml version="1.0" encoding="utf-8"?>
<!-- Generator: Adobe Illustrator 25.0.0, SVG Export Plug-In . SVG Version: 6.00 Build 0)  -->
<svg version="1.1" id="Layer_1" xmlns="http://www.w3.org/2000/svg" xmlns:xlink="http://www.w3.org/1999/xlink" x="0px" y="0px"
	 viewBox="0 0 1000 1000" style="enable-background:new 0 0 1000 1000;" xml:space="preserve">
<g>
	<path d="M512.03,909.36c-7.86,0-15.92,1.1-23.54-0.26c-11.57-2.05-23.19-4.88-34.1-9.14c-7.79-3.04-12.85-10.1-12.39-19.32
		c1.77-35.92,3.67-71.83,5.63-107.73c0.19-3.48,1.03-6.96,1.84-10.38c3.55-14.95,10.07-21.9,25.45-22.77
		c13.35-0.75,27.02,0.13,40.24,2.23c15.61,2.48,24.37,14.69,28.6,28.35c11.28,36.44,20.95,73.38,20.53,112.01
		c-0.06,5.28-1.07,10.84-2.99,15.75c-2.52,6.46-7.93,10.33-15.15,10.46c-11.37,0.2-22.75,0.05-34.12,0.05
		C512.03,908.87,512.03,909.11,512.03,909.36z M510.52,893.67c0.12-0.74,0.25-1.47,0.37-2.21c8.39,0,16.81-0.32,25.18,0.09
		c7.99,0.4,10.81-2.54,10.68-10.76c-0.59-36.08-9.37-70.6-19.71-104.75c-4.16-13.76-11.32-17.62-25.72-17.67
		c-5.39-0.02-10.95,0.9-16.13-0.13c-13.04-2.58-16.85-0.54-19.27,12.11c-0.46,2.38-0.81,4.81-0.93,7.24
		c-1.69,33.19-3.28,66.38-5.02,99.56c-0.28,5.33,2.15,8.18,7.13,9.05C481.56,888.74,496.05,891.19,510.52,893.67z"/>
	<path d="M515.92,675.96c5.94,0,11.9-0.28,17.82,0.07c8.34,0.48,13.86,5,14.93,13.31c0.93,7.17,1.12,14.52,0.81,21.75
		c-0.3,7.03-5.18,11.04-11.45,13.28c-15.73,5.62-31.77,8.4-48.58,5.96c-9.33-1.36-18.9-1.18-28.17-2.76
		c-10.64-1.82-14.7-7.34-14.56-18.06c0.06-4.29,0.31-8.76,1.57-12.82c2.33-7.53,6.45-13.43,15.47-14.44c8.83-1,17.54-3.05,26.36-4.2
		c8.54-1.11,17.15-1.65,25.73-2.44C515.88,675.72,515.9,675.84,515.92,675.96z M507.5,713.73c4.27-1,12.71-2.79,21.03-5.01
		c6.38-1.7,3.44-7.09,3.36-10.91c-0.03-1.45-2.95-4.17-4.36-4.05c-19.09,1.59-38.14,3.63-57.21,5.43c-4.71,0.45-6.36,3.65-5.23,7.18
		c0.71,2.21,4.05,4.79,6.43,5.04C482.02,712.53,492.59,712.86,507.5,713.73z"/>
	<path d="M844.27,242.43c0,1.35-0.09,2.71,0.01,4.06c1.67,22.52-4.67,21.18-21.97,25.55c-7.15,1.81-11.71-3-13.07-9.26
		c-2.68-12.38-4.12-25.03-6.54-37.48c-1.68-8.68-4.21-17.19-6.17-25.82c-0.52-2.29-1.04-4.96-0.37-7.07
		c2.62-8.17,21.05-21.22,29.98-21.43c5.87-0.14,9.05,3.43,9.93,8.8c3.41,20.77,6.62,41.58,9.9,62.37
		C845.41,242.25,844.84,242.34,844.27,242.43z"/>
	<path d="M172.77,237.81c-15.7-0.56-19.89-5.62-18.5-21.42c1.58-18.06,2.47-36.18,4.35-54.21c0.49-4.66,2.86-12.32,5.6-12.91
		c7.06-1.53,15.03-5.75,22.32,0.23c1.87,1.54,3.78,3.16,5.93,4.2c11.97,5.79,13.82,9.1,8.98,21.39
		c-6.67,16.9-13.62,33.49-13.4,52.26C188.14,235.12,182.56,238.16,172.77,237.81z"/>
	<path d="M617.01,302.67c4.26,1.76,7.52,2.53,10.11,4.29c14.78,10.01,29.47,20.15,44.04,30.47c4.97,3.52,7.33,8.62,3.13,13.95
		c-4.25,5.39-9.25,3.62-14.28,0.09c-15.05-10.55-30.44-20.63-45.29-31.45c-2.69-1.96-4.91-6.67-4.64-9.88
		C610.29,307.49,614.52,305.17,617.01,302.67z"/>
	<path d="M594.02,478.84c-3.57-1.48-5.82-2.32-7.99-3.33c-14.16-6.63-28.25-13.44-42.5-19.9c-5.53-2.5-11.09-5.03-8.38-12.25
		c2.58-6.88,8.84-6.74,14.4-4.38c15.64,6.64,31.3,13.32,46.4,21.06c3.12,1.6,5.01,7.79,5.19,11.97
		C601.24,474.23,596.45,476.65,594.02,478.84z"/>
	<path d="M701.65,320.06c-1.19-0.78-4.21-1.84-5.84-3.96c-9.64-12.53-18.95-25.32-28.37-38.01c-0.96-1.3-2.08-2.5-2.94-3.86
		c-2.76-4.39-3.45-9.53,1.37-11.99c2.99-1.52,9.48-1.21,11.37,0.93c11.93,13.53,23.48,27.47,34.18,41.99
		C716.34,311.85,711.21,320.08,701.65,320.06z"/>
	<path d="M746.33,279.85c-1.45,1.67-3.26,5.66-5.8,6.19c-3,0.63-8.48-0.71-9.69-2.93c-9.02-16.57-17.58-33.43-25.37-50.6
		c-1.17-2.57,1.42-8.66,4.09-10.55c1.95-1.38,8.94,0.36,10.19,2.63c9.1,16.52,17.32,33.53,25.77,50.41
		C745.98,275.91,745.9,277.1,746.33,279.85z"/>
	<path d="M550.28,608.69c-16.73-1.22-33.49-2.14-50.15-3.92c-2.92-0.31-7.49-4.07-7.65-6.48c-0.21-3.11,2.65-7.15,5.32-9.5
		c1.88-1.66,5.69-1.78,8.56-1.57c15.67,1.16,31.32,2.5,46.96,4.07c5.53,0.55,9.25,3.84,8.62,9.74
		C561.23,607.77,556.27,609.62,550.28,608.69z"/>
	<path d="M788.87,255.35c-1.81,2.26-3.64,6.72-6.25,7.23c-3.12,0.61-8.9-1.19-10.07-3.61c-7.39-15.25-14.09-30.86-20.41-46.6
		c-2.12-5.28-1.34-11.29,5.16-13.45c6.69-2.23,9.44,2.37,11.71,7.95c5.29,12.96,11.1,25.71,16.59,38.6
		C786.75,248.16,787.46,251.05,788.87,255.35z"/>
	<path d="M596.8,339.39c4.97,2.79,9.18,4.6,12.74,7.27c10.81,8.09,21.36,16.52,32.03,24.8c4.1,3.18,6.13,7.13,3.32,11.94
		c-2.97,5.09-7.81,5.91-12.6,3.08c-4.85-2.87-9.19-6.61-13.73-10.01c-8.85-6.63-17.95-12.97-26.35-20.12
		c-2.32-1.98-4.06-6.75-3.36-9.56C589.55,344.03,593.68,342.11,596.8,339.39z"/>
	<path d="M432.86,377.93c-2.59,3.22-4.23,6.51-6.89,8.34c-7.29,5.02-14.96,9.51-22.58,14.05c-5.53,3.3-11.31,6.19-16.81,9.54
		c-4.65,2.83-9.25,3.95-13.04-0.69c-3.78-4.63-2.12-9.3,1.98-12.83c3.45-2.96,7.31-5.53,11.24-7.84c9.95-5.85,19.89-11.76,30.16-17
		c2.95-1.5,7.26-1.71,10.47-0.82C429.49,371.27,430.72,374.92,432.86,377.93z"/>
	<path d="M247.18,182.46c-2.52,7.95-4.47,14.98-6.99,21.8c-3.56,9.61-7.03,19.32-11.65,28.43c-1.51,2.96-7.07,6.28-9.76,5.58
		c-2.84-0.75-5.37-5.87-6.33-9.52c-0.72-2.75,0.95-6.31,2.07-9.32c4.41-11.88,8.91-23.74,13.65-35.49c1.07-2.64,2.79-5.74,5.1-6.97
		c2.5-1.33,6.4-1.68,9-0.68C244.49,177.14,245.73,180.51,247.18,182.46z"/>
	<path d="M517.5,538.35c3.52,0.97,8.77,2.22,13.9,3.85c9.02,2.86,18,5.85,26.94,8.98c8.2,2.87,11.47,7.97,9.04,13.6
		c-2.43,5.6-8.59,6.47-16.08,3.71c-12.13-4.47-24.42-8.65-36.93-11.87c-5.82-1.5-11.05-2.49-10.52-9.52
		C504.36,540.28,509.85,538.84,517.5,538.35z"/>
	<path d="M531.13,496.57c7.7,2.31,13.26,3.65,18.55,5.65c9.88,3.73,19.67,7.71,29.38,11.88c4.96,2.13,8.19,5.94,5.86,11.61
		c-2.26,5.5-7.09,6.44-12.26,4.55c-6.61-2.41-12.99-5.46-19.6-7.85c-7.37-2.67-14.86-5.04-22.37-7.3c-4.89-1.47-9.43-4.13-7.75-9.4
		C524.12,501.95,528.59,499.25,531.13,496.57z"/>
	<path d="M345,248.89c-2.08,3.24-3.18,6.14-5.24,7.97c-10.08,8.99-20.4,17.72-30.69,26.49c-1.64,1.4-3.42,2.68-5.3,3.72
		c-4.52,2.49-9.03,2.62-12.28-1.9c-3.3-4.58-1.54-8.82,2.27-12.2c8.71-7.69,17.56-15.22,26.34-22.83c3.06-2.65,5.73-6.05,9.23-7.82
		c2.76-1.39,6.91-1.84,9.72-0.78C341.48,242.46,342.87,246.09,345,248.89z"/>
	<path d="M364.15,277.49c3.04,2.5,7.27,4.3,8.01,7.04c0.76,2.81-0.87,7.89-3.21,9.64c-10.58,7.94-21.76,15.08-32.76,22.46
		c-5.05,3.39-10.33,5.69-15.12-0.19c-3.63-4.46-1.45-9.76,5.46-14.69c7.71-5.51,15.22-11.32,23.08-16.6
		C353.79,282.34,358.56,280.39,364.15,277.49z"/>
	<path d="M280.32,202.81c9.03,0.14,13.21,6.21,9.95,12.06c-6.97,12.49-14.47,24.69-22.28,36.68c-3.18,4.87-8.33,7.73-13.84,3.19
		c-4.97-4.1-3.29-8.92-0.23-13.75c6.35-10.04,12.15-20.42,18.66-30.35C274.88,207.11,278.59,204.51,280.32,202.81z"/>
	<path d="M433.81,544.72c-3.9-3.86-8.72-6.46-9.68-10.08c-1.62-6.11,3.59-8.44,9.03-10.02c11.81-3.43,23.54-7.18,35.18-11.14
		c5.37-1.82,9.88-1.23,12.59,3.76c2.74,5.04,1.24,10.28-3.94,12.29C463.27,534.89,449.22,539.37,433.81,544.72z"/>
	<path d="M442.05,596.11c-6.43-0.81-12.36-1.4-12.85-9.11c-0.45-7,4.91-8.59,10.65-9.76c11.63-2.37,23.19-5.06,34.75-7.76
		c5.98-1.4,11.99-2.06,13.75,5.47c1.66,7.1-3.45,10.2-9.46,11.77C466.62,589.92,454.33,592.99,442.05,596.11z"/>
	<path d="M568.14,391.95c7.57,3.64,14.52,6.14,20.52,10.08c6.98,4.58,13.63,9.94,19.38,15.97c2.3,2.41,3.63,8.76,2.07,11
		c-1.7,2.44-7.24,2.66-11.16,2.9c-1.74,0.11-3.64-2.09-5.44-3.28c-9.42-6.2-19.12-12.05-28.09-18.85
		c-2.84-2.15-5.15-6.92-5.02-10.39C560.48,396.94,565.11,394.67,568.14,391.95z"/>
	<path d="M518.3,649.89c8.89,0.7,17.79,1.24,26.65,2.16c5.38,0.55,9.53,3.23,9.21,9.25c-0.32,5.97-4.52,8.43-10.07,8.16
		c-12.15-0.6-24.29-1.32-36.41-2.32c-5.84-0.48-11.08-2.85-10.36-9.85c0.71-6.91,6.05-8.2,12.05-7.68c2.96,0.26,5.93,0.5,8.89,0.74
		C518.28,650.19,518.29,650.04,518.3,649.89z"/>
	<path d="M485.86,611.71c6.43,0.62,12.1,1.78,12.5,9.27c0.38,7.02-4.87,8.45-10.72,9.43c-7.12,1.19-14.05,3.54-21.16,4.85
		c-5.71,1.05-11.65,2.09-17.33,1.53c-2.3-0.23-5.7-4.67-5.81-7.31c-0.11-2.66,2.7-7.18,5.14-7.93
		C460.78,617.73,473.37,614.89,485.86,611.71z"/>
	<path d="M399.19,453.9c-2.77-2.64-6.9-4.85-8.14-8.15c-1.93-5.13,1.76-8.81,6.7-10.18c12.24-3.39,24.48-6.94,36.94-9.26
		c2.93-0.55,9.31,3.26,9.51,5.47c0.32,3.57-2.33,9.83-5.2,10.85C426.57,447.04,413.62,449.97,399.19,453.9z"/>
	<path d="M452,464.76c2.86,2.9,7.52,5.49,7.84,8.53c0.33,3.14-2.77,8.51-5.72,9.8c-10.85,4.73-22.17,8.45-33.52,11.85
		c-2.48,0.74-6.62-0.64-8.54-2.52c-1.66-1.63-2.08-5.55-1.5-8.1c0.52-2.32,2.72-5.18,4.89-6.05
		C426.95,473.66,438.67,469.61,452,464.76z"/>
	<path d="M391.15,331.67c3.73,3.65,8.49,6.18,8.77,9.15c0.3,3.14-2.87,8.29-5.89,9.76c-10.18,4.93-20.81,9.06-31.6,12.46
		c-2.97,0.94-9.69-1.11-10.12-2.89c-0.88-3.66,0.02-10.41,2.47-11.75C366.05,342.23,378.11,337.49,391.15,331.67z"/>
	<path d="M525.66,806.81c0.1,16.17-11.58,28.98-26.44,29.01c-16.13,0.02-30.18-14.25-30.32-30.79
		c-0.17-20.55,11.93-33.93,30.76-34.03C513.39,770.92,525.54,787.67,525.66,806.81z M507.97,808.53c0.06-9.82-5.11-19.3-9.58-19.1
		c-6.99,0.31-11.79,6.23-11.84,14.62c-0.04,7.12,5.61,13.76,12.03,13.66C505.42,817.61,507.63,813.04,507.97,808.53z"/>
</g>
</svg>
