<?xml version="1.0" encoding="utf-8"?>
<!-- Generator: Adobe Illustrator 25.0.0, SVG Export Plug-In . SVG Version: 6.00 Build 0)  -->
<svg version="1.1" id="Layer_1" xmlns="http://www.w3.org/2000/svg" xmlns:xlink="http://www.w3.org/1999/xlink" x="0px" y="0px"
	 viewBox="0 0 1000 1000" style="enable-background:new 0 0 1000 1000;" xml:space="preserve">
<g>
	<path d="M720.31,423.79c0,1.27-0.02,4.2,0,7.12c0.67,80.4,0.02,160.84,2.54,241.19c1.46,46.66,8.03,93.17,12.3,139.75
		c0.28,3.06,0.89,6.14,0.75,9.19c-0.38,8.13-5.07,11.97-13.26,11.5c-42.54-2.4-85.1-4.64-127.63-7.22
		c-8.06-0.49-16.04-2.33-24.07-3.48c-3.87-0.55-7.76-1.39-11.63-1.34c-24.41,0.27-48.84,0.23-73.21,1.34
		c-19.85,0.9-39.64,3.27-59.46,4.94c-6.99,0.59-13.98,1.22-20.98,1.5c-26.61,1.08-53.23,1.93-79.83,3.11
		c-4.4,0.2-8.86,1.3-13.11,2.58c-13.1,3.94-19.86-0.45-21.06-14.29c-2.23-25.65-2.65-51.58-6.81-76.9
		c-9.64-58.56-4.92-117.34-5.35-176.06c-0.35-46.74-1.44-93.48-2.22-141.36c-9.39,4.27-17.27,8.33-25.49,11.51
		c-26.38,10.2-52.85,20.18-79.37,30.02c-6.6,2.45-11.66-0.14-14.17-6.71c-20.89-54.63-41.73-109.28-62.52-163.95
		c-1.19-3.12-3.07-6.75-2.39-9.62c0.91-3.83,3.27-9.38,6.26-10.35c33.36-10.84,65.45-24.5,96.99-39.82
		c52.17-25.33,103.62-52.33,159.05-70.48c13.26-4.34,25.8-10.91,38.56-16.69c10.05-4.55,14.45-2.66,19.36,7.11
		c24.12,47.94,63.01,74.51,116.67,78.81c10.58,0.85,21.45,1.01,31.94-0.36c34.05-4.44,56.5-25.46,72.86-53.84
		c6.2-10.75,9.19-13.84,21.27-9.97c16.99,5.44,33.63,12.06,50.16,18.82c26.96,11.02,53.45,23.27,80.63,33.69
		c25.85,9.91,52.51,17.7,78.51,27.24c19.96,7.33,39.51,15.78,59.12,24.04c8.08,3.4,11.79,12,9.41,22.91
		c-1.9,8.7-4.65,17.31-7.93,25.6c-9.15,23.15-18.58,46.19-28.31,69.1c-4.59,10.81-10.38,21.1-15.17,31.83
		c-5.22,11.71-10.46,23.46-14.65,35.56c-3.89,11.24-8.17,13.65-19.36,9.79c-11.63-4.01-23.54-7.22-35.32-10.84
		c-3.48-1.07-7.39-1.62-10.25-3.62c-11.85-8.3-25.67-10.37-39.15-14.18C749.2,436.75,735.2,429.77,720.31,423.79z M398.33,168.31
		c-11.53,4.79-22.13,9.16-32.7,13.59c-35.14,14.71-70.42,29.12-105.39,44.23c-42.43,18.33-82.14,42.67-126.4,57.03
		c-6.79,2.2-13.08,5.92-19.95,9.1c20.12,51.6,40.09,102.82,60.19,154.36c4.28-1.66,7.9-3.15,11.58-4.48
		c30.82-11.12,61.85-21.57,90.85-37.31c12.56-6.82,19.79-0.97,19.38,13.39c-0.32,11.19-0.72,22.4-0.6,33.59
		c0.57,50.97,1.36,101.93,1.97,152.9c0.42,35.02-0.67,70.11,1.38,105.03c1.94,33.18,7.06,66.18,10.82,99.26
		c0.21,1.82,0.69,3.61,0.87,4.52c15.02,3.05,21.56-5.15,27.21-16.82c7.93-16.37,17.45-31.96,26.37-47.85
		c1.22-2.18,2.48-5.35,4.38-5.94c4.09-1.27,9.37-2.8,12.76-1.21c4.98,2.32,4.42,7.67,1.67,12.41
		c-9.13,15.75-18.18,31.55-27.19,47.37c-1.72,3.01-3.11,6.21-5.55,11.15c36.56-2.92,71.11-6.96,105.75-8.12
		c45-1.5,89.92-3.73,135.14,1.61c40.84,4.82,82.31,4.25,123.51,6.02c0.44,0.02,0.9-0.56,1.82-1.18c-0.26-2.76-0.57-5.79-0.84-8.82
		c-3.66-40.73-9.49-81.41-10.53-122.2c-2.31-91.02-2.29-182.11-2.89-273.17c-0.03-3.85,2.22-9.52,5.16-11.08
		c2.82-1.51,8.71,0.07,11.87,2.27c19.92,13.89,40.11,26.59,65.28,28.9c5.89,0.54,11.48,4.12,17.24,6.23
		c16.34,6,32.7,11.96,48.89,17.88c3.54-8.7,6.18-15.77,9.25-22.64c10.12-22.72,20.68-45.26,30.52-68.09
		c8.53-19.78,16.4-39.84,24.36-59.86c1.55-3.88,4.37-8.22-2.47-10.91c-18.23-7.18-36.09-15.34-54.48-22.08
		c-25.48-9.34-51.58-17.01-76.9-26.75c-27.44-10.55-54.3-22.62-81.4-34.09c-9.35-3.96-18.63-8.08-26.33-11.42
		c-10.29,22.08-20.01,43.12-29.92,64.07c-2.54,5.36-6.93,8.78-12.91,5.86c-5.95-2.9-5.92-8.37-3.43-13.79
		c3.16-6.87,6.68-13.57,9.81-20.46c6.06-13.31,11.96-26.7,17.92-40.05c-0.91-0.55-1.82-1.09-2.73-1.64
		c-5.05,17.79-18.84,28.29-32.03,38.74c-9.74,7.71-20.9,13.97-32.17,19.32c-18.11,8.6-37.87,6.59-57.19,6.42
		c-21.75-0.19-42.01-6.01-61.25-16.07C438.58,221.62,414.44,199.39,398.33,168.31z"/>
	<path d="M450.52,596.13c1.83-3.71,2.87-6.28,4.28-8.62c12.73-21.02,25.53-42,38.3-63c0.29-0.48,0.5-1,0.77-1.49
		c4.98-9.14,9.8-12.04,15.27-9.19c5.55,2.89,6.25,8.53,0.98,17.58c-13.07,22.46-26.5,44.71-39.83,67.01
		c-2.81,4.7-6.87,8.19-12.4,5.58C454.87,602.58,452.95,598.84,450.52,596.13z"/>
	<path d="M442.61,638.74c-11.17,23.02-21.59,45.14-32.9,66.79c-1.17,2.24-8.84,3.55-11.34,1.94c-2.47-1.59-4.12-8.2-2.85-11.25
		c8.45-20.32,17.48-40.42,27.12-60.21c1.6-3.27,7.04-6.14,10.86-6.34C435.96,629.55,438.7,634.63,442.61,638.74z"/>
	<path d="M520.16,483.08c1.53-4.33,2.27-7.35,3.6-10.06c8.5-17.27,17.11-34.49,25.74-51.7c0.87-1.73,1.8-4.14,3.28-4.71
		c3.59-1.37,8.46-3.58,11.04-2.18c2.51,1.36,4.31,7.03,3.74,10.35c-0.82,4.74-4.09,9.05-6.31,13.55
		c-7.51,15.27-14.64,30.75-22.82,45.66c-1.78,3.25-7.16,5.79-11.1,6.13C525.1,490.31,522.4,485.42,520.16,483.08z"/>
	<path d="M622.69,303.8c-1.41,3.67-2.15,6.06-3.21,8.29c-7.78,16.38-15.62,32.74-23.45,49.1c-0.84,1.76-1.66,3.55-2.66,5.22
		c-3.09,5.15-7.46,8.08-13.27,5.02c-5.56-2.93-5.25-8.11-2.97-13.14c5.41-11.95,10.8-23.91,16.49-35.73
		c3.63-7.53,7.18-15.24,11.97-22.01c1.84-2.6,7.2-4.12,10.66-3.71C618.71,297.13,620.69,301.48,622.69,303.8z"/>
</g>
</svg>
