<?xml version="1.0" encoding="utf-8"?>
<!-- Generator: Adobe Illustrator 25.0.0, SVG Export Plug-In . SVG Version: 6.00 Build 0)  -->
<svg version="1.1" id="Layer_1" xmlns="http://www.w3.org/2000/svg" xmlns:xlink="http://www.w3.org/1999/xlink" x="0px" y="0px"
	 viewBox="0 0 1000 1000" style="enable-background:new 0 0 1000 1000;" xml:space="preserve">
<g>
	<path d="M286.93,680.16c-7-5.07-13.42-9.69-19.81-14.36c-11.19-8.17-10.61-15.39-2.46-26.24c9.65-12.85,18.66-26.76,24.86-41.51
		c25.76-61.2,55.23-120.51,89.42-177.36c11.7-19.47,27.72-36.3,40.36-55.27c11.57-17.35,23.13-35.14,31.3-54.19
		c11.08-25.79,22.73-50.68,40.94-72.47c8.24-9.85,13.31-22.3,20.24-33.3c6.17-9.79,12.36-19.65,19.54-28.7
		c10.84-13.67,19.9-14.77,35-5.72c2.75,1.65,5.54,3.24,8.17,4.77c11.76-14.34,22.75-28.64,34.73-42.08
		c13.44-15.08,30.55-17.55,48.19-8.07c4.15,2.23,8.82,4.13,12,7.4c24.9,25.53,58.1,39.08,86.24,59.92
		c15.09,11.18,18.71,26.54,8.73,42.64c-3.43,5.54-7.19,10.88-10.86,16.27c-3.66,5.36-7.4,10.67-11.12,16.01
		c0.27,0.61,0.39,1.52,0.87,1.79c19.59,10.73,20.13,14.85,9.92,35.62c-18.52,37.67-36.6,75.59-54.01,113.79
		c-22.2,48.71-41.38,98.91-65.81,146.46c-32.02,62.33-58.78,127.95-104.38,182.55c-9.21,11.03-20.09,20.77-30.88,30.33
		c-7.86,6.97-16.83,6.88-26.2,1.44c-9.07-5.27-18.88-9.27-28.1-14.29c-7.2-3.92-11.52-2.88-15.26,4.94
		c-5.15,10.76-10.73,21.51-17.65,31.18c-5.51,7.7-13.35,13.73-20.05,20.61c-2.49,2.56-5.1,5.17-6.93,8.19
		c-8.89,14.71-21.88,23.32-38.89,24.5c-9.31,0.65-12.94,6.31-16.72,13.12c-5.78,10.41-11.22,21.13-18.18,30.72
		c-4.16,5.73-11.02,9.48-16.52,14.28c-1.8,1.57-2.92,3.93-4.76,5.44c-3.25,2.67-6.48,6.11-10.3,7.22
		c-12.48,3.62-25.21,6.37-37.87,9.37c-2.82,0.67-5.88,1.87-8.53,1.33c-6.77-1.37-16.23-1.64-19.24-6.02
		c-2.93-4.27-0.39-13.54,1.94-19.81c3.12-8.4,8.5-15.95,12.63-24.01c3.61-7.04,8.91-13.08,5.02-22.79
		c-1.6-4.01,2.75-11.94,6.51-16.26c11.73-13.49,16.51-27.46,12.38-45.78c-3.22-14.28-2.84-29.59-2.29-44.38
		c0.22-5.9,5.1-11.67,8.04-17.4c0.77-1.49,3.13-2.54,3.26-3.93c1.81-19.38,13.84-33.88,23.4-49.56
		C284.74,685,285.4,683.3,286.93,680.16z M549.31,190.86c-5.64,8.83-11.65,18.21-17.63,27.6c-9.11,14.33-18.42,28.54-27.23,43.05
		c-8.6,14.16-18.52,27.91-24.6,43.13c-12.33,30.88-27.04,59.78-49.01,85.24c-24.96,28.92-45.13,61.26-61.61,95.79
		c-5.62,11.77-11.41,23.45-17.03,35.22c-20.83,43.6-41.62,87.21-62.82,131.65c7.62,5.54,15.23,12.57,24.08,17.27
		c53.45,28.39,107.31,56.02,160.7,84.52c8.75,4.67,14.88,4.12,20.61-3.13c15.72-19.88,34.16-38.32,46.27-60.22
		c29.6-53.54,57.13-108.28,83.82-163.34c24.61-50.77,47.01-102.6,70.42-153.95c12.41-27.21,24.89-54.38,37.6-82.15
		c-5.55-3.3-9.88-7.68-14.82-8.51c-27.32-4.59-50.38-17.91-72.02-34.01C616.37,226.95,586.9,204.68,549.31,190.86z M597.48,184.84
		c20.8,15.01,39.17,29.2,58.51,41.93c15.97,10.51,33.1,19.26,49.69,28.84c6.74,3.89,12.95,2.71,17.44-3.09
		c7.52-9.72,14.64-19.79,21.14-30.2c1.24-1.99-0.02-7.77-2-9.18c-12.37-8.79-25.26-16.83-37.98-25.12
		c-9.66-6.3-19.57-12.26-28.93-18.98c-9.69-6.95-18.6-14.99-28.33-21.88c-6.68-4.72-14.17-4.3-19.73,2
		C617.26,160.5,607.83,172.37,597.48,184.84z M307.77,693.23c-6.84,11.14-13.26,21.49-19.56,31.92c-5.71,9.46-2.46,16.12,6.42,21.54
		c18.22,11.1,36.12,22.72,54.38,33.75c9.27,5.6,18.82,10.87,28.71,15.23c2.68,1.18,8.92-0.32,10.36-2.6
		c8.45-13.29,15.96-27.18,23.68-40.67C376.63,732.42,342.76,713.14,307.77,693.23z M289.36,886.3c2.12-2.21,3.37-3.1,4.07-4.31
		c7.29-12.48,14.63-24.94,21.66-37.57c4.86-8.71,11.31-13.01,21.93-12.69c11.15,0.34,21.67-2.75,26.5-15.05
		c-29.96-18.38-59.75-36.66-91.14-55.92c1.15,16.24,0.56,30.97,3.6,44.9c3.84,17.62-0.63,32.08-10.64,45.88
		c-2.27,3.12-4.48,6.28-7,9.82C269.02,869.95,278.84,877.85,289.36,886.3z"/>
</g>
</svg>
