<?xml version="1.0" encoding="utf-8"?>
<!-- Generator: Adobe Illustrator 25.0.0, SVG Export Plug-In . SVG Version: 6.00 Build 0)  -->
<svg version="1.1" id="Layer_1" xmlns="http://www.w3.org/2000/svg" xmlns:xlink="http://www.w3.org/1999/xlink" x="0px" y="0px"
	 viewBox="0 0 1000 1000" style="enable-background:new 0 0 1000 1000;" xml:space="preserve">
<g>
	<path d="M501.67,247.52c0-10.34,0-21.12,0-34.6c-4.87,3.95-7.96,6.67-11.26,9.11c-17.74,13.1-37.39,22.6-59.64,18.7
		c-13.76-2.41-26.87-9.47-39.73-15.58c-8.4-3.99-15.77-10.11-23.73-15.07c-5.69-3.55-6.91-8.58-5.07-14.46
		c5.11-16.28,10.92-32.25,21.97-45.7c14.7-17.89,34.19-27.15,56.79-27.7c27.63-0.68,54.97,3.18,79.28,10.38
		c15.64-16.42,30.06-32.57,45.71-47.42c5.38-5.11,13.59-7.97,21.02-9.85c2.92-0.74,9.42,3.39,10.28,6.43
		c0.83,2.93-2.58,9.19-5.74,10.77c-27.04,13.55-45.29,35.14-56.65,62.32c-10.69,25.59-14.93,52.73-14.08,80.53
		c0.4,13.06,1.9,14.04,15.08,16.63c8.57,1.68,17.01,4.32,25.3,7.11c30.11,10.11,48.11,32.92,62.9,59.45
		c20.65,37.03,28.68,77.87,37.29,118.6c6.24,29.51,11.76,59.38,24.61,86.83c6.5,13.88,16.73,26,25.19,38.98
		c10.53,16.16,22.58,31.61,30.94,48.83c6.64,13.67,8.85,29.52,12.72,44.47c1.24,4.8,0.9,10.03,2.32,14.76
		c12.08,40.08,4.2,79.2-6.89,117.65c-8.5,29.45-25.65,53.65-51.6,71.33c-16.47,11.22-31.04,25.49-48.16,35.47
		c-54.62,31.84-113.25,42.02-175.47,27.98c-7.16-1.62-14.19-3.86-21.39-5.23c-26.21-4.99-46.73-20.16-65.71-37.39
		c-23.6-21.42-41.13-47.99-60.6-72.99c-16.15-20.74-24.06-44.88-33.81-68.12c-6.18-14.72-7.16-31.97-8.59-48.25
		c-2.2-24.86-2.56-49.9,4.17-74.32c5.79-21,14.93-40.21,27.63-58.33c20.83-29.72,40.9-60.14,58.85-91.66
		c11.68-20.51,12.83-44.85,15.78-68.16c4.4-34.8,16.75-67.01,33.3-97.7c8.68-16.1,24.73-23.87,39.38-32.92
		C476.26,260.87,489.12,254.43,501.67,247.52z M531.2,909.72c16.8-1.54,42.93-2.22,68.76-12.06c27.17-10.35,51.59-23.67,73.3-42.58
		c4.42-3.85,9.14-7.41,14.04-10.63c24.59-16.19,38.31-39.71,46.68-67.2c12.87-42.23,10.9-84.41,0.41-126.65
		c-2.25-9.06-3.29-18.91-7.66-26.87c-9.27-16.87-18.71-34.13-31.09-48.68c-20.16-23.72-32.45-51.11-40.87-80.05
		c-8.34-28.64-13.47-58.25-19.44-87.55c-7.52-36.93-20.47-71.64-42.61-102.27c-6.17-8.54-14.75-16.83-24.12-21.26
		c-14.93-7.07-31.24-11.69-47.4-15.54c-6.86-1.63-15.77-0.6-22.08,2.55c-15.18,7.6-29.96,16.35-43.72,26.27
		c-7.26,5.23-13.39,13.15-17.71,21.12c-17.85,32.96-26.59,68.64-30.43,105.82c-2.14,20.78-6.77,41.56-18.32,59.21
		c-20.69,31.62-37.02,66.12-62.39,94.67c-1.92,2.16-3.31,4.85-4.65,7.45c-13.17,25.49-20.78,52.48-18.65,81.25
		c1.66,22.44,1.89,45.82,8.78,66.81c7.42,22.62,16.97,45.12,32.21,64.91c18.45,23.96,35.18,49.4,58.09,69.34
		c12.45,10.84,26.46,21.54,41.67,27.21C468.66,904.16,494.7,910.08,531.2,909.72z M514.27,151.2c-4.35-1.3-8.7-3.2-13.23-3.85
		c-15.11-2.16-30.25-4.44-45.45-5.63c-38.84-3.05-63.56,15.6-72.58,54.53c19.97,13.83,39.2,32.49,66.4,24.28
		C483.11,210.38,509.08,190.92,514.27,151.2z"/>
	<path d="M414.67,682.08c-2.07-27.68,4.85-56.38,18.07-82.74c16.6-33.1,38.26-62.29,78.3-70.14c1.69-0.33,3.39-1.05,4.86-1.96
		c15.34-9.42,28.52-7.5,40.9,6.48c31.44,35.49,53.23,76.73,66.42,121.7c9.91,33.8,11.42,69.05-2.62,102.77
		c-3.57,8.58-10.27,15.96-16.1,23.45c-3.02,3.88-7.93,6.3-10.86,10.22c-31.64,42.26-91.05,35.85-125.57,15.99
		c-20.05-11.54-36.04-26.44-42.78-48.08c-5.77-18.54-7.47-38.38-10.48-57.71C413.92,696.33,414.67,690.35,414.67,682.08z
		 M432.9,683.97c0.93,11.68,1.63,23.38,2.82,35.03c3.24,31.85,13.85,58.73,45.26,74.12c27.26,13.36,73.36,20.01,98.46-14.17
		c3.07-4.18,8.18-6.84,11.39-10.95c4.74-6.07,10.13-12.28,12.62-19.34c13.39-37.96,7.65-75.09-6.88-111.45
		c-3.69-9.24-9.01-17.85-12.54-27.15c-9.14-24.06-25.87-43.07-41.41-62.83c-2.1-2.68-7.57-4.31-11.18-3.88
		c-6.59,0.8-12.86,3.89-19.41,5.34c-18.18,4.02-32.14,14.64-43.03,28.85C445.03,608.81,432.57,644.2,432.9,683.97z"/>
</g>
</svg>
