<?xml version="1.0" encoding="utf-8"?>
<!-- Generator: Adobe Illustrator 25.0.0, SVG Export Plug-In . SVG Version: 6.00 Build 0)  -->
<svg version="1.1" id="Layer_1" xmlns="http://www.w3.org/2000/svg" xmlns:xlink="http://www.w3.org/1999/xlink" x="0px" y="0px"
	 viewBox="0 0 1000 1000" style="enable-background:new 0 0 1000 1000;" xml:space="preserve">
<g>
	<path d="M660.66,618.57c-2.33,1.46-3.6,2.14-4.73,2.98c-16.96,12.53-33.53,25.62-51.01,37.38c-7.38,4.96-16.46,7.73-25.11,10.4
		c-13.12,4.04-26.35,8.25-39.86,10.37c-25.13,3.94-50.41,7.99-75.76,9.19c-63.32,2.99-125.76-5.64-188.02-16.44
		c-25.37-4.4-51.34-6-75.22-16.4c-15.15-6.6-29.52-14.99-44.21-22.63c-3.02-1.57-6.46-2.88-8.72-5.24
		c-2.91-3.04-6.84-7.01-6.87-10.61c-0.3-37.44-3.48-75.34,1.23-112.2c5.37-41.95,2.52-83.95,6.97-125.73
		c1.99-18.65,9.77-34.14,21.6-47.38c21.65-24.24,50.45-37.69,79.91-50.13c16.34-6.9,33.33-8.1,50.34-8.45
		c38.09-0.78,76.2-0.43,114.3-0.42c2.77,0,6.63,0.04,8.13,1.71c5.97,6.69,13.96,5.38,21.38,6.81c22.16,4.29,44.31,8.73,66.34,13.65
		c23.42,5.23,47.02,10.03,69.93,17.02c17.66,5.39,35.32,12.25,51.27,21.42c18.45,10.6,30.55,27.35,37.79,48.17
		c6.92,19.9,16.59,38.86,25.53,58.02c1.26,2.7,4.94,4.69,7.93,6.11c21.51,10.15,44.89,13.21,67.95,17.46
		c29.56,5.45,59.35,3.81,89.15,3.32c9.29-0.16,18.76,1.75,27.9,3.81c8.07,1.82,12.48,7.68,12.63,16.27
		c0.55,30.3,1.38,60.6,1.61,90.9c0.17,22.6-0.07,45.21-0.83,67.79c-0.57,16.89-3.45,18.48-20.36,18.57
		c-23.99,0.13-48.09,2.94-71.92,1.31c-30.2-2.07-60.63-5.43-90.1-12.04C697.49,648.51,675.52,639.18,660.66,618.57z M280.97,481.05
		c0,21.31-0.32,42.06,0.19,62.78c0.16,6.47-0.17,11.93-7.37,13.15c-7.18,1.22-10.43-3.65-11.29-10.02
		c-0.73-5.37-1.14-10.83-1.14-16.24c0-12.88,0.3-25.75,0.53-38.63c0.25-14.27,0.19-13.98-13.81-18.48
		c-8.15-2.62-15.95-6.34-23.91-9.55c-1.94-0.78-3.92-1.48-6.54-2.47c0,3.32-0.02,5.57,0,7.83c0.2,18.31,0.43,36.62,0.59,54.94
		c0.05,5.74-2.06,11.33-8.24,10.68c-3.62-0.38-7.98-4.82-9.76-8.52c-1.85-3.83-1.18-8.95-1.26-13.52
		c-0.32-17.74-0.43-35.48-0.83-53.22c-0.05-2.35-0.61-5.8-2.18-6.81c-9.7-6.25-19.76-11.94-30.6-18.35c0,4.6,0.1,9.06-0.02,13.51
		c-0.36,13.43,0.7,27.11-1.52,40.23c-6.64,39.21-6.48,78.52-4.19,117.96c0.15,2.65,0.89,6.35,2.72,7.63
		c9.47,6.63,19.38,12.63,29.14,18.85c1.07-0.51,2.15-1.01,3.22-1.52c0-17.69-0.07-35.38,0.06-53.06c0.03-3.68-0.18-7.87,1.47-10.87
		c1.5-2.72,5.42-5.75,8.21-5.68c2.83,0.06,6.41,3.24,8.1,6c1.45,2.37,0.92,6.09,0.86,9.21c-0.37,18.31-0.61,36.63-1.43,54.92
		c-0.3,6.7,2.2,10.03,8.5,11.44c9.21,2.06,18.29,4.75,27.55,6.52c6,1.14,12.22,1.1,18.96,1.63c0-7.89-0.02-14.44,0-20.98
		c0.05-12.59-0.13-25.19,0.29-37.77c0.19-5.65,3.09-10.18,9.57-9.88c5.91,0.27,8.19,4.61,8.71,9.94c0.25,2.55,0.15,5.15,0.16,7.72
		c0.03,14.02-0.32,28.06,0.26,42.06c0.18,4.44,2.02,12.04,4.45,12.63c13.43,3.26,27.27,4.8,39.43,6.69c0-21.42-0.05-41.7,0.03-61.97
		c0.03-6.4,1.3-12.79,9.27-12.94c8.75-0.17,9.39,6.72,9.56,13.34c0.05,1.72-0.04,3.43-0.01,5.15c0.43,19.64,0.88,39.28,1.34,59.82
		c17.03,1.46,32.52,2.78,48.78,4.17c0-4.52,0.1-7.33-0.02-10.14c-0.43-10.58-0.98-21.15-1.37-31.73
		c-0.23-6.25,1.25-12.03,8.64-12.48c7.52-0.46,9.42,5.35,9.9,11.48c0.69,8.84,1.21,17.7,1.58,26.56c0.23,5.57,0.04,11.15,0.04,16.41
		c15.78,0,29.92,0,44.56,0c-1.37-15.95-2.78-31.04-3.91-46.15c-0.49-6.56-0.06-13.55,8.54-14.15c8.02-0.57,9.57,5.76,10.15,12.16
		c0.69,7.7,1.26,15.4,1.98,23.09c0.76,8.09,1.63,16.18,2.51,24.79c17.52-1.9,33.61-3.65,48.81-5.31c0-20.91-0.04-40.05,0.04-59.19
		c0.02-3.7-0.61-8.08,1.11-10.92c2.03-3.35,6.19-7.19,9.58-7.34c2.57-0.11,5.9,4.92,7.87,8.26c1.13,1.91,0.22,5.03,0.22,7.6
		c0,17.96,0,35.91,0,55.47c14.57-3.84,27.07-6.69,39.27-10.51c7.36-2.31,11.32-7.31,10.53-16.19c-1.19-13.37-1.03-26.86-1.34-40.3
		c-0.13-5.83,1.02-11.36,8.05-12.09c6.94-0.71,9.84,4.25,10.39,10.09c0.85,9.1,0.89,18.27,1.32,27.4c0.18,3.76,0.47,7.52,0.88,13.82
		c10.03-8.93,17.84-16.43,26.26-23.17c4.45-3.57,6.11-7.21,6.25-12.95c0.79-33.16,2.27-66.3,3.17-99.45
		c0.42-15.49,0.07-31,0.07-45.9c-12.69,7.62-25.01,14.74-36.96,22.43c-2.18,1.4-4,5.05-4.08,7.72c-0.44,15.43,0.15,30.91-0.72,46.3
		c-0.19,3.33-4.74,8.69-7.68,8.96c-3.07,0.29-7.8-3.79-9.59-7.14c-1.85-3.46-1.29-8.34-1.35-12.61
		c-0.15-10.47-0.05-20.94-0.05-31.35c-16.78,2.64-32.82,5.16-49.11,7.72c0,2.25-0.14,4.21,0.02,6.15c1,11.69,2.28,23.35,3.04,35.05
		c0.38,5.92-2.63,10.17-8.86,10.49c-5.84,0.31-8.76-3.59-9.67-8.97c-0.42-2.52-0.27-5.14-0.53-7.7
		c-1.19-11.79-2.43-23.57-3.66-35.48c-17.02,1.66-32.6,3.17-49.06,4.77c0,6.01-0.1,10.84,0.02,15.66
		c0.42,17.44,0.8,34.88,1.42,52.31c0.23,6.51-1.38,11.81-8.6,12.45c-7.29,0.64-9.88-4.5-10.58-10.86c-0.16-1.42-0.15-2.86-0.15-4.29
		c-0.01-20.53-0.01-41.06-0.01-62.54c-15.08,0-28.63,0-41.09,0c0,17.84-0.39,35.79,0.2,53.71c0.23,6.94,0.52,12.95-7.71,14.62
		c-6.01,1.22-10.85-3.58-11.07-12.26c-0.47-18.82-0.15-37.66-0.15-56.8c-18.18-1.88-35.7-3.69-52.82-5.46
		c0,19.88-0.3,39.26,0.14,58.62c0.19,8.49-2.78,14.56-9.11,14.97c-6.12,0.4-10.39-4.47-10.55-12.93
		c-0.28-14.59-0.18-29.19-0.23-43.79c-0.02-6.75,0-13.51,0-19.84C309.9,485.88,296.15,483.59,280.97,481.05z M350.55,292.38
		c0-0.04,0-0.08,0-0.12c-17.19,0-34.4-0.43-51.57,0.16c-10.82,0.37-22.06,0.67-32.27,3.77c-23.67,7.2-45.37,19.22-65.41,33.46
		c-16.82,11.95-29.68,27.49-32.06,49.53c-1.97,18.23-1.37,35.2,16.75,45.87c6.57,3.87,13.25,7.63,20.14,10.89
		c7.48,3.53,15.23,6.49,22.91,9.57c9.54,3.83,18.83,9.04,28.76,11.03c27.75,5.58,55.76,9.84,83.68,14.57
		c41.99,7.11,84.23,9.13,126.69,5.79c23.66-1.87,47.28-5.25,70.97-5.67c34.88-0.63,65.49-12.14,93.72-31.54
		c21.71-14.92,24.77-45.93,13.54-65.96c-11.02-19.66-29.73-30.04-49.37-36.23c-37.28-11.75-75.39-21.02-113.46-30.02
		c-20.27-4.79-41.21-6.7-61.79-10.26c-5.53-0.95-10.79-4.42-16.24-4.6C387.21,292.01,368.87,292.38,350.55,292.38z M817.68,487.27
		c-10.76-0.89-20.6-1.7-31.07-2.56c0.14,3.02,0.27,5.22,0.35,7.43c0.48,12,1.18,24,1.35,36.01c0.09,6.39-2.7,11.53-9.99,11.35
		c-6.85-0.16-8.92-5.25-9.25-11.24c-0.11-1.99,0.17-4.01,0.08-6c-0.54-11.42-0.92-22.86-1.89-34.25c-0.19-2.25-2.34-5.77-4.2-6.22
		c-12.07-2.93-24.31-5.18-37.08-7.77c0,4.33-0.08,7.44,0.01,10.55c0.42,14.3,1.03,28.6,1.25,42.9c0.08,5.72-2.42,10.28-8.88,10.51
		c-5.91,0.2-8.67-3.79-9.57-9.1c-0.52-3.09-0.66-6.26-0.75-9.41c-0.44-14.87-0.65-29.75-1.34-44.61c-0.13-2.73-1.38-6.92-3.32-7.82
		c-11.96-5.52-23.54-11.18-28.81-25.09c-1.15,3.86-1.08,6.93-1.16,10c-0.4,16.3-0.73,32.6-1.26,48.89
		c-0.99,30.28-2.19,60.56-3.03,90.85c-0.09,3.2,1,6.82,2.63,9.61c15.07,25.6,41.36,30.87,66.84,37.82
		c2.14-15.08,4.04-28.91,6.09-42.73c0.94-6.34,2.96-12.11,11.02-11.48c5.94,0.47,8.63,6.24,7.34,14.96
		c-0.63,4.24-1.66,8.44-2.12,12.69c-1.05,9.56-1.86,19.14-2.85,29.69c19.69,1.96,37.99,3.79,55.72,5.56
		C815.12,593.47,816.39,540.7,817.68,487.27z M834.09,648.48c13.91-1.16,26.06-2.55,38.25-3.09c11.57-0.51,11.74-0.11,11.79-12.04
		c0.15-40.61,0.23-81.22,0.2-121.83c0-5.99-0.09-12.13-1.4-17.91c-0.61-2.69-4.06-6.44-6.54-6.7c-10.22-1.07-20.58-0.78-30.87-1.41
		c-6.91-0.42-9.31,1.91-9.38,9.19c-0.22,23.45-1.63,46.88-1.96,70.33C833.8,592.12,834.09,619.23,834.09,648.48z"/>
	<path d="M402.18,332.69c11.84,1.75,23.96,2.44,35.45,5.49c21.22,5.63,34.84,20.41,42.18,40.58c4.08,11.2,2.76,22.29-4.59,32.54
		c-10.44,14.57-24.41,23.26-41.86,26c-31.79,4.99-62.82,2.55-92.37-11.3c-16.07-7.53-29.44-27.85-28.7-43.36
		c0.69-14.37,9.12-24.43,19.26-33.08c15.29-13.05,34.24-14.91,53.3-15.79c5.72-0.26,11.46-0.04,17.18-0.04
		C402.07,333.38,402.12,333.03,402.18,332.69z M404.76,421.18c7.97-0.69,15.99-1.07,23.91-2.13c12.73-1.71,23.87-6.93,30.52-18.3
		c2.48-4.24,4.22-10.67,2.88-15.05c-4.08-13.34-12.49-24.45-26.38-28.29c-20.13-5.57-40.93-5.57-61.73-3.95
		c-11.11,0.87-21.41,3.5-30.34,10.39c-9.82,7.58-15.88,20.16-11.18,27.16c4.77,7.11,10.97,14.6,18.36,18.34
		C367.46,417.79,385.7,421.9,404.76,421.18z"/>
</g>
</svg>
